<?xml version="1.0" encoding="UTF-8" standalone="no"?>
<!-- Created with Inkscape (http://www.inkscape.org/) -->

<svg
   xmlns:dc="http://purl.org/dc/elements/1.1/"
   xmlns:cc="http://creativecommons.org/ns#"
   xmlns:rdf="http://www.w3.org/1999/02/22-rdf-syntax-ns#"
   xmlns:svg="http://www.w3.org/2000/svg"
   xmlns="http://www.w3.org/2000/svg"
   xmlns:sodipodi="http://sodipodi.sourceforge.net/DTD/sodipodi-0.dtd"
   xmlns:inkscape="http://www.inkscape.org/namespaces/inkscape"
   width="210mm"
   height="297mm"
   viewBox="0 0 210 297"
   version="1.1"
   id="svg3776"
   inkscape:version="0.92.4 (33fec40, 2019-01-16)"
   sodipodi:docname="logo1.svg">
  <defs
     id="defs3770" />
  <sodipodi:namedview
     id="base"
     pagecolor="#ffffff"
     bordercolor="#666666"
     borderopacity="1.0"
     inkscape:pageopacity="0.0"
     inkscape:pageshadow="2"
     inkscape:zoom="0.49497475"
     inkscape:cx="-251.59774"
     inkscape:cy="287.21771"
     inkscape:document-units="mm"
     inkscape:current-layer="layer1"
     showgrid="false"
     showguides="false"
     inkscape:window-width="2560"
     inkscape:window-height="1370"
     inkscape:window-x="0"
     inkscape:window-y="34"
     inkscape:window-maximized="1" />
  <metadata
     id="metadata3773">
    <rdf:RDF>
      <cc:Work
         rdf:about="">
        <dc:format>image/svg+xml</dc:format>
        <dc:type
           rdf:resource="http://purl.org/dc/dcmitype/StillImage" />
        <dc:title></dc:title>
      </cc:Work>
    </rdf:RDF>
  </metadata>
  <g
     inkscape:label="Ebene 1"
     inkscape:groupmode="layer"
     id="layer1">
    <path
       id="path3780"
       d="m 7.9620902,80.465676 c 0.277074,-2.020425 0.553808,-4.037392 0.884758,-6.047933 0.204502,-1.164172 0.298894,-2.344345 0.340502,-3.527879 -0.05058,-0.914553 0.117585,-1.796596 0.265417,-2.688146 0.0903,-0.931703 0.206927,-1.851689 0.368,-2.771828 0.134146,-0.890136 0.3791828,-1.7557 0.5997658,-2.623505 0.206726,-0.874161 0.496126,-1.716036 0.790266,-2.557253 0.273685,-0.836065 0.582249,-1.655875 0.884486,-2.479676 0.273,-0.851564 0.596181,-1.673824 0.959518,-2.48214 0.364962,-0.865774 0.826444,-1.670535 1.268246,-2.488272 0.4201,-0.895848 1.019641,-1.649967 1.637573,-2.380019 0.531654,-0.64665 0.967837,-1.378647 1.504809,-2.019935 0.577658,-0.64637 1.232098,-1.198977 1.84965,-1.796442 1.437901,-1.32819 3.100971,-2.118809 4.767232,-3.177275 1.153238,-0.732599 -4.605716,2.944402 -3.456561,2.203905 4.112439,-2.649994 2.639988,-2.009504 4.463191,-2.772822 0.813923,-0.203585 1.606709,-0.47895 2.431559,-0.633126 0.886146,-0.141196 1.782735,-0.155435 2.676196,-0.167098 0.979297,-0.0056 1.958617,-3.22e-4 2.937927,9.57e-4 0.911467,-0.08793 1.77753,0.06553 2.664445,0.262947 0.786856,0.274203 1.553329,0.560727 2.279393,1.000293 0.769758,0.53358 1.535098,1.070773 2.302002,1.6083 0.647188,0.475884 1.159292,1.139656 1.803217,1.613454 0.657704,0.567014 1.215423,1.25974 1.738839,1.975007 0.629943,0.610178 1.092506,1.376617 1.607834,2.096575 0.393019,0.689281 0.789478,1.370862 1.209318,2.040628 0.511639,0.731003 0.801822,1.609589 1.15685,2.438765 0.412871,1.074385 0.736062,2.196443 0.974001,3.33495 0.284447,1.240335 0.501022,2.497792 0.841756,3.721313 0.305424,1.123681 0.618961,2.249084 0.864673,3.391218 0.232633,1.20161 0.484069,2.391164 0.627259,3.611632 0.122754,1.142289 0.136722,2.293187 0.1455,3.441999 -0.05866,1.385802 0.125914,2.757029 0.253573,4.131141 0.120445,1.249434 0.160664,2.504848 0.180212,3.760361 0.01379,1.277772 0.0094,2.555684 0.0086,3.833528 -0.01695,1.323961 0.03897,2.649896 -0.04679,3.971168 -0.153084,1.245795 -0.275802,2.493536 -0.342789,3.748783 0.0074,1.128189 -0.09944,2.236287 -0.245523,3.350182 -0.147199,1.081875 -0.204242,2.174194 -0.235717,3.26664 -0.0035,1.061336 -0.007,2.112777 -0.133929,3.165697 -0.121294,1.27438 -0.3816,2.5227 -0.55596,3.78787 -0.115389,1.16247 -0.373901,2.2972 -0.521881,3.45437 -0.105143,1.00494 -0.10159,2.01209 -0.249303,3.01135 -0.125564,1.01752 -0.305046,2.02011 -0.490314,3.02552 -0.265702,1.11631 -0.470453,2.24825 -0.740998,3.36291 -0.232325,1.19102 -0.453925,2.38474 -0.711387,3.56981 -0.320221,1.35433 -0.508,2.74 -0.798664,4.10226 -0.358888,1.48539 -0.665186,2.98491 -0.997949,4.47727 -0.319507,1.096 -0.430785,2.23654 -0.588048,3.36822 -0.19721,1.09418 -0.297929,2.20352 -0.511041,3.29386 -0.195682,1.14687 -0.406254,2.29018 -0.657673,3.42391 -0.300045,1.30324 -0.574778,2.61308 -0.863774,3.91923 -0.308435,1.29314 -0.675076,2.56367 -0.896026,3.88059 -0.230098,1.05138 -0.408468,2.11521 -0.657923,3.16112 -0.263414,1.09405 -0.536687,2.18031 -0.702409,3.29902 -0.24701,1.17609 -0.422686,2.36709 -0.638767,3.55032 -0.190884,1.25249 -0.383823,2.50393 -0.575508,3.75651 -0.120695,1.29701 -0.35637,2.57397 -0.525844,3.86316 -0.275865,1.25206 -0.428494,2.52535 -0.602592,3.79753 -0.173269,1.46886 -0.483957,2.90973 -0.695968,4.37105 -0.295748,1.41413 -0.436861,2.85589 -0.637014,4.28753 -0.212041,1.50434 -0.429545,3.00754 -0.634301,4.51335 -0.148428,1.63406 -0.291266,3.26493 -0.479365,4.89439 -0.186577,1.33339 -0.165986,2.68686 -0.291174,4.02543 -0.189243,1.30633 -0.298686,2.62296 -0.364484,3.94331 -0.05619,1.43925 -0.05463,2.88021 -0.05431,4.32051 0.0059,1.25314 3.11e-4,2.50626 -4.41e-4,3.75941 2.46e-4,1.50119 0.0019,3.00239 8.8e-4,4.5036 0.0022,1.51531 -0.0013,3.03061 -4.04e-4,4.54593 1.71e-4,1.53156 -4.42e-4,3.06309 8.78e-4,4.59464 0.0022,1.40049 2.7e-5,2.80098 0.0019,4.20145 -0.06768,1.34219 0.116704,2.66747 0.256772,3.99557 0.0617,1.32889 0.278246,2.63667 0.436943,3.9533 0.114597,1.23589 0.330739,2.45619 0.615723,3.65627 0.369527,1.28138 0.661922,2.58632 1.026471,3.86969 0.371734,1.29433 0.792855,2.57498 1.253348,3.83376 0.496381,1.06851 0.917657,2.1952 1.546598,3.17798 0.562943,0.8545 1.065563,1.75263 1.64731,2.59194 0.537462,0.85213 1.154878,1.64589 1.821754,2.37581 0.603084,0.7482 1.264589,1.45257 1.975364,2.07359 0.76256,0.69181 1.517439,1.39882 2.253619,2.12711 0.863648,0.7271 1.735689,1.43869 2.605252,2.15715 0.872213,0.59799 1.728902,1.23936 2.64219,1.75665 0.926639,0.60848 1.96277,0.93863 2.980652,1.29883 1.081488,0.3164 2.203421,0.3651 3.315123,0.40584 1.035457,0.0749 2.050473,0.006 3.074691,-0.14766 1.211807,-0.31314 2.430729,-0.56665 3.597894,-1.05602 0.173506,-0.0692 0.349783,-0.13007 0.520523,-0.20735 0.434636,-0.19648 0.551394,-0.28551 0.956014,-0.54765 0.17147,-0.11101 0.685409,-0.44521 0.512851,-0.33622 -3.314669,2.09339 -4.277558,2.84481 -2.703997,1.6537 1.018572,-0.70811 1.952512,-1.54218 2.893669,-2.36766 0.874175,-0.6722 1.571731,-1.56842 2.362034,-2.3492 0.696705,-0.76794 1.38479,-1.54857 2.05932,-2.3414 0.612695,-0.72585 1.19216,-1.48462 1.65868,-2.33549 0.38617,-0.8451 0.809014,-1.66949 1.194758,-2.51441 0.334152,-0.85478 0.595274,-1.7316 0.748917,-2.64758 0.217423,-0.97031 0.405103,-1.94211 0.505082,-2.93644 0.08127,-0.98017 0.08475,-1.96539 0.08924,-2.94885 0.0019,-0.98888 -8.8e-4,-1.97778 -0.0022,-2.96665 0.07434,-0.86895 0.261264,-1.71687 0.350873,-2.58472 0.02881,-0.74279 0.03598,-1.43998 0.51706,-2.00029 2.694548,-2.03448 3.244335,-2.62072 5.559656,-2.55225 0.598492,0.0225 1.19733,0.028 1.7961,0.0326 0.774786,0.0909 1.504329,-0.19229 2.259841,-0.32825 0.834959,-0.1288 1.679151,-0.14471 2.520621,-0.15858 0.887562,-0.01 1.775176,-0.006 2.662752,-0.006 0.89596,0.0399 1.76674,0.0112 2.6468,-0.1708 0.8843,-0.19266 1.78333,-0.25953 2.68189,-0.2988 0.89056,-0.0293 1.78161,-0.0265 2.672457,-0.026 0.88881,9e-4 1.77764,0.002 2.66647,0.005 0.99558,0.002 1.99118,0.002 2.98679,0.002 0.95467,-0.0879 1.87444,0.0816 2.81013,0.25595 0.94222,0.17578 1.898,0.20428 2.8509,0.22807 0.98085,0.0185 1.96187,0.0126 2.94282,0.0148 1.00863,-4.9e-4 2.01728,-0.002 3.02593,-0.005 0.90588,-9e-4 1.81176,-9e-4 2.71765,-9e-4 0.88797,-3e-5 1.77596,-2e-5 2.66394,-2e-5 0.88846,2e-5 1.77691,2e-5 2.66535,2e-5 0.88877,0 1.77754,0 2.6663,0 0.88877,0 1.77753,0 2.66631,0 1.11653,0.005 2.23307,0.005 3.34962,0.002 0.95753,-9.1e-4 1.91508,-0.002 2.87262,-0.002 0.88957,-2.1e-4 1.77914,-1.9e-4 2.66872,-1.9e-4 0.88774,0 1.77548,3e-5 2.66325,3e-5 0.88868,0 1.77736,0 2.66607,0 0.88876,0 1.77755,0 2.66633,0 0.90054,0.0894 1.76308,-0.0904 2.6443,-0.25672 0.88743,-0.16245 1.78677,-0.20274 2.6842,-0.22778 0.93159,-0.0188 1.86338,-0.0126 2.79507,-0.0112 0.9856,0.002 1.97119,0.002 2.95679,0.002 0.89959,2e-5 1.79915,-4e-5 2.6987,-6e-5 0.88795,-3e-5 1.77588,-3e-5 2.66382,-3e-5 0.88856,-1e-5 1.7771,0 2.66566,0 0.88877,0 1.77754,0 2.6663,0 0.88877,0 1.77754,0 2.66631,0 0.88878,0 1.77754,0 2.66632,0 1.00966,0.005 2.01935,0.002 3.02903,9.1e-4 0.91659,-4.8e-4 1.83314,-4.8e-4 2.74974,-9.1e-4 0.88863,-8e-5 1.77728,-7e-5 2.66592,-7e-5 0.88831,0 1.77665,0 2.66497,0 0.88874,1e-5 1.77749,1e-5 2.66624,1e-5 0.90878,-0.0386 1.7936,-0.006 2.68715,0.17358 0.90782,0.1183 1.77301,0.44256 2.67018,0.62599 0.81025,0.0541 1.57505,0.21852 2.35259,0.4628 0.69201,0.18281 1.40763,0.19457 2.11513,0.21397 0.79593,-0.0202 1.55067,0.24177 2.27056,0.58734 0.7122,0.36334 1.31955,0.84961 1.87649,1.45867 0.29871,0.45924 0.59517,0.91357 0.9007,1.365 0.28355,0.50877 0.39387,1.09706 0.57053,1.6558 0.22764,0.72169 0.30264,1.47518 0.34427,2.23344 0.0389,0.80805 0.0329,1.6177 0.0321,2.4266 -0.0194,0.9497 0.0364,1.90277 -0.0428,2.84936 -0.0797,0.82663 -0.36165,1.58876 -0.63655,2.35262 -0.27003,0.8363 -0.59533,1.64084 -0.95573,2.4332 -0.39453,0.76864 -0.81701,1.52124 -1.26499,2.25285 -0.44566,0.83802 -0.97817,1.58649 -1.57723,2.29312 -0.73595,0.79922 -1.4916,1.57258 -2.21319,2.3891 -0.68632,0.74498 -1.40614,1.44761 -2.16282,2.10245 -1.81192,1.66741 -3.90353,2.80062 -5.94453,4.11109 1.35097,-0.79873 -2.56401,1.58924 -1.2657,0.75746 1.1115,-0.71209 4.43966,-2.86018 3.33868,-2.12811 -1.39174,0.92536 -2.81394,1.79293 -4.21106,2.70818 -1.10308,0.72262 2.21924,-1.42018 3.32886,-2.13026 -1.64307,0.15747 -3.38643,2.37993 -5.11067,3.22996 -0.43892,0.21637 -0.90497,0.34413 -1.3535,0.53303 -0.8858,0.32805 -1.79594,0.58237 -2.66981,0.94851 -0.86532,0.37168 -1.78165,0.50136 -2.69999,0.57413 -1.10695,-0.0149 -2.19473,0.22177 -3.29064,0.36396 -1.00032,0.12714 -1.96912,0.4285 -2.9735,0.54417 -1.03755,0.0149 -2.04095,0.30547 -3.06645,0.44293 -1.03452,0.0391 -2.03556,0.32624 -3.05551,0.49391 -1.01674,0.1697 -2.01857,0.41887 -3.04246,0.54897 -0.93081,0.10347 -1.86688,0.11341 -2.8014,0.12041 -1.06569,-0.0432 -2.11441,0.0166 -3.17144,0.15728 -1.17565,0.17857 -2.3584,0.26368 -3.54346,0.30601 -1.41374,0.0294 -2.8279,0.0247 -4.24185,0.024 -1.33838,-0.002 -2.67679,0.002 -4.01521,2.1e-4 -1.27934,-0.002 -2.5587,-0.002 -3.83805,-1.1e-4 -1.0963,4.4e-4 -2.19261,5.1e-4 -3.28892,0.002 -1.17472,-0.0167 -2.35144,0.0541 -3.52124,-0.0784 -1.16437,-0.19092 -2.33526,-0.30733 -3.5103,-0.37237 -1.07859,-0.0496 -2.15835,-0.0453 -3.23765,-0.0498 -1.30742,9.1e-4 -2.61486,-7e-5 -3.92227,0.002 -1.22699,0.0873 -2.4314,-0.0809 -3.64529,-0.24616 -1.23819,-0.17079 -2.48679,-0.20725 -3.73289,-0.2343 -1.18468,-0.0185 -2.36954,-0.0166 -3.55429,-0.0148 -0.9952,0.002 -1.99041,0.005 -2.98562,0.006 -0.90564,-0.0166 -1.79378,-0.26927 -2.69474,-0.3821 -0.87993,-0.0955 -1.76471,-0.10514 -2.648,-0.11325 -0.88807,-0.005 -1.77614,-0.002 -2.66422,-4.5e-4 -0.88881,9.1e-4 -1.77764,0.002 -2.66646,0.002 -0.888777,1.5e-4 -1.777557,1.2e-4 -2.666337,1.2e-4 -0.99465,-4.5e-4 -1.98931,-9e-4 -2.98395,-0.002 -1.16605,-9.1e-4 -2.3321,3.4e-4 -3.498138,-9.1e-4 -1.169557,3.4e-4 -2.339111,-9e-5 -3.508664,9.1e-4 -1.258814,-9.1e-4 -2.517627,-0.002 -3.776443,-0.005 -1.165737,3.9e-4 -2.331475,0.005 -3.497214,0.005 -1.021099,-3.8e-4 -2.042198,-4.9e-4 -3.063295,2e-5 -0.927009,5e-4 -1.854019,9.1e-4 -2.781028,9.1e-4 -1.011394,0.0148 -2.008781,0.26292 -3.015495,0.37958 -0.917824,0.0953 -1.840104,0.1078 -2.761178,0.11633 -0.889135,0.005 -1.778285,0.002 -2.667427,4.8e-4 -0.888292,-9.1e-4 -1.776583,-0.002 -2.664875,-0.002 -0.888463,-0.18228 -1.777669,-0.34023 -2.67824,-0.42378 -0.94252,-0.024 -1.866432,-0.0819 -2.797409,-0.24454 -0.995274,-0.18552 -1.957395,-0.518 -2.958609,-0.68137 -0.904547,-0.13875 -1.785923,-0.39998 -2.695428,-0.52187 -0.847241,9.1e-4 -1.651641,-0.17985 -2.474289,-0.3734 -0.731917,-0.11397 -1.47234,-0.29243 -2.141543,-0.65022 -0.590424,-0.19189 -1.101891,-0.56665 -1.669395,-0.81058 -0.428061,-0.30945 -0.886856,-0.51614 -1.307919,-0.84001 0,0 3.727502,-2.65567 3.727502,-2.65567 v 0 c 0.404439,0.2893 0.84686,0.49773 1.262873,0.76535 0.550126,0.28811 1.09489,0.57556 1.666182,0.8119 0.677609,0.27857 1.377603,0.45324 2.091168,0.57305 0.811246,0.19511 1.623909,0.27316 2.450843,0.34525 0.905962,0.14858 1.792126,0.40661 2.700975,0.53356 0.991324,0.19388 1.954097,0.52807 2.952219,0.67786 0.926584,0.141 1.856922,0.13846 2.788304,0.22044 0.888692,0.10346 1.764443,0.3029 2.654229,0.38637 0.888385,3.4e-4 1.776765,9.1e-4 2.665144,0.002 0.887992,9.1e-4 1.776021,0.005 2.663992,-0.006 0.912156,-0.0149 1.825502,-0.0392 2.73279,-0.15413 1.013095,-0.13512 2.022276,-0.36637 3.046753,-0.33722 0.926126,1.6e-4 1.852246,4.5e-4 2.77837,9.1e-4 1.021082,4.9e-4 2.042168,4.2e-4 3.063249,10e-6 1.162351,0.002 2.324704,0.005 3.487055,0.005 1.261286,-9.1e-4 2.522566,-0.002 3.783848,-0.005 1.168623,9e-4 2.337243,9e-4 3.505863,9e-4 1.16674,-9e-4 2.33348,0 3.50023,-9e-4 0.99679,-0.002 1.993557,-0.002 2.990347,-0.002 0.88874,0 1.77751,1e-5 2.66628,-2.2e-4 0.88872,-2.9e-4 1.77748,-9.1e-4 2.66622,-0.002 0.88916,-9.1e-4 1.77836,-0.005 2.6675,0.006 0.89338,0.0149 1.78838,0.0366 2.67629,0.15748 0.88528,0.13048 1.76478,0.36649 2.66253,0.33375 0.99317,-2e-4 1.98633,-4.9e-4 2.97949,-2.5e-4 1.18652,4.6e-4 2.37315,-0.002 3.55948,0.0248 1.25457,0.0389 2.51104,0.0907 3.75654,0.27417 1.20171,0.16171 2.39971,0.25606 3.61169,0.19964 1.3083,1.2e-4 2.61661,-0.005 3.92492,-0.002 1.0855,-2.3e-4 2.17177,0.002 3.25598,0.0678 1.17476,0.0819 2.34308,0.22486 3.5109,0.38715 1.16801,0.0788 2.33831,0.0269 3.50799,0.0397 1.09495,9.1e-4 2.18987,9.1e-4 3.28479,0.002 1.27893,0.002 2.5579,0.002 3.83683,0.002 1.33578,3.6e-4 2.67155,0.006 4.00732,0.006 1.41411,-0.002 2.82863,0.005 4.2422,-0.0466 1.17728,-0.055 2.35093,-0.16395 3.51971,-0.33306 1.06799,-0.12811 2.13523,-0.13651 3.20874,-0.12489 0.92421,-0.0126 1.85019,-0.0356 2.7685,-0.16339 1.01743,-0.15451 2.01809,-0.40834 3.03547,-0.56204 1.0169,-0.1876 2.02784,-0.40705 3.05853,-0.48325 1.02165,-0.16968 2.03626,-0.38335 3.07057,-0.4392 0.99474,-0.15785 1.969,-0.44578 2.97181,-0.54124 1.09939,-0.15174 2.19535,-0.33082 3.30498,-0.35614 0.90105,-0.10514 1.78616,-0.29835 2.63275,-0.66967 0.88902,-0.31645 1.78224,-0.61906 2.66567,-0.95405 1.694,-0.66013 5.48884,-3.12569 -1.12667,1.02799 14.16889,-9.16095 -1.36961,0.88755 0.88263,-0.57548 1.82224,-1.18369 3.62203,-2.37471 5.47522,-3.48412 -6.62204,4.29019 -2.91638,2.07418 -1.59284,0.7821 0.78869,-0.59786 1.47989,-1.32949 2.19419,-2.02831 0.71747,-0.82062 1.44261,-1.62663 2.21206,-2.38413 0.60201,-0.68279 1.18452,-1.36447 1.60248,-2.20729 0.42277,-0.73711 0.86474,-1.45885 1.28944,-2.19625 0.33927,-0.79731 0.7428,-1.55679 0.96266,-2.41082 0.29886,-0.71533 0.56353,-1.45517 0.68884,-2.23282 0.15461,-0.91574 0.0291,-1.86215 0.0699,-2.7898 -1.3e-4,-0.80046 0.004,-1.60128 -0.0225,-2.40137 -0.0314,-0.71317 -0.0812,-1.42548 -0.28957,-2.10695 -0.16328,-0.51078 -0.27001,-1.04347 -0.50486,-1.51999 -0.29951,-0.42817 -0.56646,-0.87672 -0.86429,-1.30708 -0.5209,-0.56469 -1.11359,-0.98549 -1.78437,-1.30288 -0.69199,-0.31096 -1.42683,-0.45613 -2.17469,-0.4439 -0.7337,-0.0327 -1.47356,-0.0743 -2.18239,-0.30742 -0.76353,-0.24016 -1.54317,-0.29568 -2.32447,-0.43631 -0.88735,-0.20804 -1.75908,-0.495 -2.66243,-0.61332 -0.87802,-0.14544 -1.75966,-0.11117 -2.64549,-0.10809 -0.88876,0 -1.77748,0 -2.66624,0 -0.88832,0 -1.77667,0 -2.665,1e-5 -0.88859,0 -1.77716,0 -2.66576,-6e-5 -0.91588,-1.2e-4 -1.83175,-3e-4 -2.74764,-9e-4 -1.01042,-4.9e-4 -2.02084,-0.002 -3.03128,9e-4 -0.88876,0 -1.77753,0 -2.6663,0 -0.88878,0 -1.77754,0 -2.66632,0 -0.88877,0 -1.77755,0 -2.66631,0 -0.88854,0 -1.77709,0 -2.66563,1e-5 -0.88796,1e-5 -1.77588,4e-5 -2.66381,0 -0.89924,-6e-5 -1.79847,-1.8e-4 -2.69771,-9e-4 -0.98468,-9.1e-4 -1.96934,-0.005 -2.95403,-0.005 -0.93021,4.9e-4 -1.86067,-9.1e-4 -2.79061,0.0276 -0.88691,0.0378 -1.7738,0.10303 -2.6484,0.28074 -0.89282,0.16579 -1.78195,0.24059 -2.68833,0.1912 -0.88879,0 -1.77756,0 -2.66635,0 -0.8887,0 -1.77739,0 -2.66607,0 -0.88778,2e-5 -1.77553,2e-5 -2.6633,2e-5 -0.88942,0 -1.77883,10e-6 -2.66825,-1.8e-4 -0.95596,-2.9e-4 -1.91191,-9.1e-4 -2.86787,-0.002 -1.11826,-9.1e-4 -2.23652,-0.002 -3.35478,0.002 -0.88876,0 -1.77754,0 -2.66631,0 -0.88875,0 -1.77752,0 -2.66629,0 -0.88847,0 -1.77692,0 -2.66537,0 -0.88796,0 -1.77592,0 -2.66387,-5e-5 -0.90532,-2e-5 -1.81064,-6e-5 -2.71596,-6e-5 -1.00798,1.1e-4 -2.01597,2e-4 -3.02395,0.002 -0.98322,0.002 -1.96659,0.002 -2.94958,-0.0253 -0.96721,-0.0343 -1.93555,-0.0852 -2.88951,-0.2804 -0.91876,-0.16859 -1.83306,-0.24234 -2.76559,-0.19201 -0.99663,-4.7e-4 -1.99326,-4.3e-4 -2.989887,3.2e-4 -0.88871,-9.1e-4 -1.77743,-0.002 -2.66615,-0.002 -0.88678,0.002 -1.77402,9.1e-4 -2.66011,0.0449 -0.88958,0.0559 -1.77526,0.1571 -2.651199,0.34411 -0.893088,0.14414 -1.789594,0.11116 -2.690193,0.10598 -0.885895,-9.1e-4 -1.771881,-0.005 -2.657674,0.0126 -0.830308,0.0236 -1.663745,0.0559 -2.482939,0.22188 -0.765453,0.16284 -1.521954,0.33662 -2.308005,0.25676 -0.601161,-0.006 -1.202226,-0.0148 -1.803242,-0.0301 -1.885837,0.005 -3.755666,1.4085 2.155414,-2.11482 -0.697947,0.20671 -0.67956,0.89448 -0.691766,1.59057 -0.07156,0.85753 -0.206713,1.69955 -0.373987,2.54008 0.0013,0.98964 0.0035,1.9793 0.0031,2.96895 -0.0027,0.99759 -0.0031,1.99646 -0.06998,2.99188 -0.08357,1.00415 -0.229603,1.99717 -0.49176,2.96487 -0.130454,0.95878 -0.375496,1.86651 -0.695463,2.76712 -0.343171,0.88153 -0.845003,1.67091 -1.177833,2.56089 -0.465824,0.87809 -0.982548,1.69711 -1.625243,2.43127 -0.668361,0.81259 -1.390045,1.56154 -2.044153,2.39026 -0.810157,0.76865 -1.505168,1.66617 -2.355007,2.38019 -0.965533,0.79242 -1.845507,1.71623 -2.891561,2.38699 -2.105594,1.70388 -4.408495,3.23041 -6.855499,4.24683 -1.194507,0.42612 -2.420366,0.7213 -3.65319,0.97473 -1.037841,0.14081 -2.07587,0.14192 -3.120016,0.0829 -1.13969,-0.0604 -2.289494,-0.1386 -3.387324,-0.51362 -1.034066,-0.38169 -2.077681,-0.74422 -3.019427,-1.3712 -0.917899,-0.55746 -1.811411,-1.17026 -2.679688,-1.8188 -0.879365,-0.72514 -1.764823,-1.44061 -2.626223,-2.19162 -0.736093,-0.71736 -1.483439,-1.423 -2.243978,-2.10697 -0.711188,-0.64919 -1.39137,-1.34951 -2.0025,-2.11543 -0.674634,-0.75104 -1.298512,-1.56592 -1.847833,-2.43433 -0.585411,-0.84534 -1.097095,-1.74565 -1.658913,-2.60993 -0.636101,-1.02273 -1.083017,-2.17173 -1.589421,-3.27723 -0.467809,-1.26909 -0.891956,-2.56249 -1.267955,-3.86843 -0.375603,-1.28791 -0.659629,-2.60339 -1.043619,-3.888 -0.289993,-1.21922 -0.526295,-2.45715 -0.639595,-3.71369 -0.150606,-1.32063 -0.386464,-2.62772 -0.440042,-3.96007 -0.135793,-1.34597 -0.347053,-2.68625 -0.278584,-4.04611 0.0019,-1.40115 -2.8e-4,-2.8023 0.0019,-4.20349 0.0013,-1.53186 8.81e-4,-3.06377 8.81e-4,-4.59566 8.79e-4,-1.51514 -0.0022,-3.03029 -4.41e-4,-4.54541 -8.79e-4,-1.50104 1.41e-4,-3.00207 -0.0013,-4.50308 -0.0022,-1.25238 -0.01117,-2.50474 -0.0055,-3.75714 0.0043,-1.44755 0.0081,-2.89543 0.04581,-4.34248 0.05388,-1.33011 0.156391,-2.65846 0.34617,-3.97388 0.176918,-1.3339 0.100662,-2.69801 0.300024,-4.03236 0.190018,-1.63263 0.360852,-3.26179 0.478685,-4.9031 0.19085,-1.50943 0.424918,-3.0106 0.624895,-4.51816 0.223034,-1.42576 0.313744,-2.87695 0.638449,-4.28397 0.19973,-1.4654 0.523547,-2.90225 0.696865,-4.37244 0.186745,-1.26551 0.271706,-2.55076 0.600241,-3.78769 0.160698,-1.29494 0.41544,-2.57068 0.524427,-3.87316 0.175053,-1.26083 0.399421,-2.51153 0.56735,-3.77376 0.215205,-1.17632 0.367874,-2.36444 0.642039,-3.52644 0.148459,-1.13689 0.406862,-2.23929 0.679292,-3.34562 0.252238,-1.03636 0.43184,-2.08661 0.67881,-3.12529 0.202023,-1.33389 0.556468,-2.61795 0.887708,-3.91701 0.310652,-1.29831 0.549174,-2.61781 0.8596,-3.91702 0.268428,-1.12358 0.475961,-2.26366 0.65791,-3.40737 0.223998,-1.08349 0.337308,-2.18033 0.524418,-3.27271 0.189513,-1.13643 0.22655,-2.30654 0.575158,-3.40945 0.368452,-1.48018 0.628836,-2.99551 1.005786,-4.47443 0.316841,-1.35563 0.478045,-2.74525 0.790871,-4.10131 0.284107,-1.17779 0.490723,-2.37853 0.703124,-3.5743 0.272729,-1.10538 0.476155,-2.22566 0.756481,-3.3295 0.161613,-1.00765 0.392231,-1.99587 0.490103,-3.01664 0.166052,-0.99394 0.186909,-1.98758 0.258457,-2.9947 0.132816,-1.16501 0.399055,-2.29978 0.526772,-3.46397 0.161281,-1.26705 0.432273,-2.50941 0.552635,-3.78266 0.138069,-1.03683 0.167739,-2.06639 0.152319,-3.11512 0.02666,-1.109334 0.07539,-2.219126 0.21723,-3.318824 0.141161,-1.103128 0.291609,-2.192998 0.262821,-3.312465 0.06174,-1.260496 0.161695,-2.517478 0.340202,-3.764897 0.125567,-1.305004 0.03523,-2.621586 0.06376,-3.932331 0.0013,-1.274959 0.0027,-2.549973 -0.0078,-3.824904 -0.0158,-1.243681 -0.04764,-2.487894 -0.157106,-3.726507 -0.12417,-1.387356 -0.333798,-2.76921 -0.27934,-4.167892 -0.007,-1.13155 -0.01596,-2.265227 -0.120693,-3.391934 -0.128967,-1.207083 -0.376139,-2.379025 -0.606437,-3.564729 -0.234624,-1.133271 -0.553316,-2.245612 -0.845246,-3.361663 -0.353716,-1.233138 -0.570741,-2.502847 -0.864021,-3.754297 -0.216713,-1.107302 -0.532042,-2.193124 -0.928817,-3.235909 -0.349107,-0.802941 -0.626461,-1.658607 -1.128171,-2.364871 -0.416673,-0.661126 -0.800025,-1.341293 -1.191676,-2.019865 -0.507151,-0.724577 -0.992655,-1.462204 -1.603893,-2.087656 -0.504135,-0.678221 -1.035119,-1.339446 -1.677612,-1.860369 -0.615019,-0.506755 -1.148504,-1.12588 -1.790296,-1.597591 -0.749695,-0.542751 -1.512386,-1.060496 -2.281208,-1.569407 -0.706975,-0.385131 -1.44643,-0.671935 -2.210326,-0.884816 -0.864787,-0.188239 -1.726508,-0.230997 -2.608121,-0.190732 -0.978898,-0.0013 -1.957865,-0.0056 -2.936706,0.0098 -0.880162,0.02128 -1.76431,0.05138 -2.631753,0.234456 -0.801724,0.188168 -1.60363,0.416786 -2.374872,0.722771 -0.109638,0.06048 -0.434456,0.250878 -0.32894,0.181715 1.147192,-0.751193 4.616338,-2.951779 3.454708,-2.228559 -1.140079,0.709778 -8.919246,5.753022 -0.690988,0.409352 0.225202,-0.146182 -0.901269,0.576394 -0.642671,0.496254 -0.646114,0.548308 -1.239501,1.175959 -1.868946,1.74744 -0.572021,0.609506 -1.020148,1.314902 -1.513029,2.000516 -0.57902,0.743324 -1.267302,1.391739 -1.67687,2.283918 -0.407897,0.832915 -0.917138,1.596316 -1.279741,2.457106 -0.343237,0.813287 -0.746443,1.591081 -0.967195,2.461937 -0.330518,0.809184 -0.615436,1.639047 -0.887045,2.473739 -0.32424,0.815388 -0.594612,1.657569 -0.807872,2.516106 -0.255451,0.837633 -0.445742,1.716625 -0.623127,2.575035 -0.154912,0.919523 -0.323384,1.825381 -0.367375,2.7627 -0.129889,0.877269 -0.365999,1.730079 -0.297111,2.630266 -0.03448,1.208063 -0.116804,2.414377 -0.328215,3.602294 -0.339894,2.00522 -0.661214,4.009628 -0.882652,6.036634 0,0 -3.9538928,2.151289 -3.9538928,2.151289 z"
       inkscape:connector-curvature="0"
       style="stroke-width:0.46408895" />
    <path
       id="path3782"
       d="m 12.737217,77.103439 c 1.923205,-0.148771 3.847171,-0.283724 5.773465,-0.37106 1.196067,-0.049 2.393156,-0.05362 3.589895,-0.05684 0.926307,-9.57e-4 1.852615,4.9e-4 2.778925,0.0013 0.88633,4.89e-4 1.772659,9.56e-4 2.658988,9.56e-4 0.994889,0.0013 1.989777,0.0013 2.98467,9.57e-4 0.929714,-4.76e-4 1.859434,-9.57e-4 2.789153,-9.57e-4 0.889711,-1.26e-4 1.779431,-1.26e-4 2.669147,-1.26e-4 0.888186,0 1.776375,0 2.664566,0 0.888714,0 1.777434,0 2.666152,0 0.888777,0 1.777552,0 2.666323,0 0.88877,0 1.777542,0 2.666313,0 0.888768,0 1.777538,0 2.666305,0 0.88877,0 1.777538,0 2.666309,0 0,0 -3.571396,2.887754 -3.571396,2.887754 v 0 c -0.888771,0 -1.777539,0 -2.66631,0 -0.888767,0 -1.777538,0 -2.666305,0 -0.888773,0 -1.777543,0 -2.66631,0 -0.888777,0 -1.777552,0 -2.666326,0 -0.888718,0 -1.777438,0 -2.666161,0 -0.888195,0 -1.776389,0 -2.664589,0 -0.889616,0 -1.779226,0 -2.668842,-1.12e-4 -0.928843,-1.69e-4 -1.857684,-4.62e-4 -2.786526,-9.57e-4 -0.995883,-4.76e-4 -1.991767,-2.8e-4 -2.98765,9.57e-4 -0.886358,-1.12e-4 -1.772719,-2.66e-4 -2.659079,-0.0013 -0.92481,-9.56e-4 -1.849619,-0.0042 -2.774434,-0.0042 -1.189129,0.0013 -2.37846,0.0112 -3.566877,0.06104 -1.924701,0.08471 -3.848027,0.208597 -5.7675608,0.388477 0,0 3.5381548,-2.907312 3.5381548,-2.907312 z"
       inkscape:connector-curvature="0"
       style="stroke-width:0.46408895" />
    <path
       id="path3784"
       d="m 38.086979,42.633075 c 1.928363,0.221548 3.874805,0.417304 5.781383,0.81953 0.947311,0.328079 1.949635,0.370865 2.905886,0.632285 0.834133,0.257389 1.693535,0.35517 2.554449,0.411271 0.882016,0.04326 1.765159,0.04018 2.647824,0.04018 0.888962,-0.0013 1.777922,-0.0042 2.666881,-0.0042 0.888878,-9.57e-4 1.777755,-9.57e-4 2.666631,-9.57e-4 0.888777,-2.9e-5 1.777547,-1.5e-5 2.666321,0 0.88877,0 1.777537,0 2.666302,2.8e-5 0.888773,0 1.777538,0 2.666306,0 0.888772,0 1.777537,0 2.66631,0 1.012872,0.0013 2.025751,4.76e-4 3.038625,0.0013 1.167775,0.0013 2.335556,-3.64e-4 3.503334,9.57e-4 1.15115,-2.94e-4 2.302302,2.38e-4 3.453459,-9.57e-4 1.005361,-0.0013 2.010721,-9.57e-4 3.016084,-4.47e-4 0.986846,-9.8e-5 1.973693,-9.57e-4 2.960535,-0.0013 1.149563,0.0013 2.299123,0.0042 3.448686,0.0042 1.208105,0.0013 2.416207,-0.0013 3.624306,-9.56e-4 1.110264,-9.57e-4 2.220532,1.39e-4 3.330792,-4.48e-4 1.08811,3.91e-4 2.17623,1.12e-4 3.26434,-9.57e-4 1.04115,4.61e-4 2.08229,5.03e-4 3.123427,-1.96e-4 0.97104,-0.0013 1.94206,-2.67e-4 2.91309,4.06e-4 0.98581,1.4e-5 1.97161,-9.57e-4 2.95743,-0.0013 1.00584,9.57e-4 2.01165,0.0013 3.01748,4.76e-4 0.95001,-0.08134 1.8717,0.179125 2.8053,0.326258 0.87936,0.127686 1.76679,0.149709 2.6523,0.164508 0.88726,0.0098 1.77458,0.0056 2.66186,0.0056 0.88876,-0.0013 1.77751,-0.0013 2.66626,-0.0013 0.93032,-9.57e-4 1.86062,5.03e-4 2.79094,0.0013 0.98562,1.12e-4 1.97121,-5.04e-4 2.95683,-9.57e-4 0.89958,-3.5e-4 1.79917,-4.35e-4 2.69876,-4.63e-4 0.90518,3.09e-4 1.81037,-9.57e-4 2.71554,9.56e-4 1.00251,9.57e-4 2.005,4.3e-5 3.00748,-4.75e-4 0.90669,-4.49e-4 1.81337,-4.9e-4 2.72003,-4.9e-4 0.88813,-5.6e-5 1.77628,-2.9e-5 2.6644,-2.9e-5 0.88844,0 1.77689,1.4e-5 2.66533,1.4e-5 0.88878,0 1.77753,0 2.66629,0 0.88878,0 1.77755,0 2.66632,0 0.8764,0.04145 1.76676,-0.0945 2.63184,0.08513 0.75903,0.220161 1.53609,0.314105 2.31669,0.367897 0.86712,0.04578 1.73553,0.04424 2.60341,0.04537 0.82892,-0.09395 1.61607,0.18079 2.42404,0.328499 0.77624,0.123065 1.51859,0.414714 2.29571,0.547117 0.70713,0.2639 1.43643,0.43244 2.17416,0.543914 0.59201,0.05964 1.13923,0.368777 1.66915,0.650779 0.48526,0.37162 0.95636,0.686538 1.24987,1.271165 0.18347,0.49582 0.22727,1.025648 0.24159,1.555547 0.006,0.533957 -0.004,1.067986 -0.005,1.601971 -0.005,0.587764 -0.004,1.175569 -0.005,1.763345 -0.008,0.581981 0.025,1.165487 -0.0322,1.744626 -0.17148,0.591081 -0.27159,1.197269 -0.38952,1.802561 -0.21694,0.601776 -0.32257,1.239536 -0.51506,1.849546 -0.22363,0.812586 -0.37749,1.648203 -0.55601,2.475237 -0.1099,0.874834 -0.35423,1.714468 -0.52637,2.574014 -0.22603,0.778689 -0.44082,1.549105 -0.55289,2.359675 -0.0776,0.703352 -0.0886,1.404661 -0.20944,2.101839 -0.12238,0.823702 -0.38074,1.607812 -0.55335,2.417793 -0.19444,0.706013 -0.45558,1.369631 -0.56995,2.100453 -0.13351,0.877983 -0.37877,1.718724 -0.63783,2.557758 -0.19071,0.821098 -0.31902,1.652332 -0.51473,2.473291 -0.18934,0.89575 -0.43696,1.769085 -0.57702,2.677407 -0.0787,0.879328 -0.32633,1.720698 -0.45668,2.590408 -0.19202,0.80413 -0.39097,1.595952 -0.48861,2.422861 -0.16543,0.821602 -0.35473,1.62933 -0.44747,2.466836 -0.18964,0.961974 -0.31938,1.93645 -0.48815,2.902525 -0.2487,0.969926 -0.32817,1.973873 -0.47733,2.963875 -0.20813,0.968456 -0.33512,1.950464 -0.40387,2.942189 -0.0543,0.982862 -0.0546,1.968062 -0.0564,2.95238 -0.005,0.84392 0.0525,1.68448 -0.0979,2.51576 -0.19508,0.80861 -0.26465,1.64032 -0.30807,2.47308 0.0133,0.99712 -0.0743,1.97363 -0.22268,2.95499 -0.15613,0.97177 -0.20846,1.95724 -0.23917,2.94206 -0.1079,0.99746 -0.28381,1.98147 -0.37462,2.98193 -0.081,1.11534 -0.0846,2.2353 -0.0898,3.35359 -9.3e-4,1.01901 2.6e-4,2.038 9.5e-4,3.05703 -0.12103,1.18984 -0.27711,2.3723 -0.35896,3.56746 -0.0702,1.15854 -0.0812,2.32007 -0.088,3.48076 -0.005,1.31328 -0.004,2.62662 -9.4e-4,3.93989 0.004,1.20919 0.004,2.41838 9.4e-4,3.62754 -9.4e-4,1.49188 -9.4e-4,2.9838 -0.005,4.4757 -0.0117,1.64246 0.20676,3.27284 0.31409,4.90889 0.099,1.78819 0.11619,3.58034 0.12703,5.37138 0.006,1.96495 3.3e-4,3.92993 -9.4e-4,5.89486 0.10286,2.07622 0.27591,4.14598 0.35749,6.22381 0.0711,2.11418 0.0807,4.23003 0.0874,6.34543 -0.0105,1.99785 0.20571,3.98601 0.31664,5.97836 0.14649,1.98327 0.43279,3.94623 0.67751,5.91574 0.21765,2.02931 0.48731,4.05173 0.75849,6.07309 0.19374,1.97392 0.48917,3.93217 0.70224,5.90337 0.15828,1.59859 0.64694,3.11149 1.07502,4.63589 0.32288,1.15042 0.61513,2.29559 0.77656,3.48897 0.1588,1.10347 0.46154,2.16776 0.69441,3.25149 0.2612,1.1271 0.58434,2.23339 0.8695,3.35259 0.18495,0.90459 0.48057,1.77688 0.76782,2.64642 0.2205,1.09321 0.56818,2.13658 0.89263,3.1954 0.34941,1.02717 0.70324,2.05514 0.99889,3.10342 0.32423,0.96468 0.62324,1.94642 1.00434,2.88524 0.29609,0.78246 0.56944,1.57859 0.81983,2.38139 0.31145,0.76655 0.63847,1.52316 0.95615,2.28725 0.37331,0.91635 0.71619,1.85587 1.17197,2.72617 0.3143,0.74398 0.67466,1.39923 1.23833,1.93677 0,0 -3.75868,2.59271 -3.75868,2.59271 v 0 c -0.56846,-0.59761 -0.98075,-1.27884 -1.30238,-2.07251 -0.45797,-0.88545 -0.81585,-1.83222 -1.19302,-2.76256 -0.3292,-0.77747 -0.65613,-1.55368 -0.98278,-2.33184 -0.2374,-0.79152 -0.51535,-1.56928 -0.79492,-2.34239 -0.38996,-0.95693 -0.69021,-1.96012 -1.02896,-2.94086 -0.2848,-1.04766 -0.64274,-2.07056 -0.99043,-3.09382 -0.31674,-1.05615 -0.69077,-2.08661 -0.89296,-3.18031 -0.29071,-0.88195 -0.60051,-1.76408 -0.78043,-2.68357 -0.27777,-1.12839 -0.6083,-2.23923 -0.87619,-3.37113 -0.22925,-1.09936 -0.5457,-2.17352 -0.71251,-3.29016 -0.14381,-1.17365 -0.42794,-2.29406 -0.73945,-3.42445 -0.42341,-1.55682 -0.92736,-3.09563 -1.10209,-4.72116 -0.19866,-1.9698 -0.50037,-3.9236 -0.68516,-5.89532 -0.27237,-2.02244 -0.55393,-4.04441 -0.7655,-6.07585 -0.24102,-1.98178 -0.53632,-3.95434 -0.69316,-5.94824 -0.1064,-2.00173 -0.32677,-3.99823 -0.32651,-6.00427 -0.005,-2.10988 -0.008,-4.22029 -0.0769,-6.32907 -0.0814,-2.08433 -0.24004,-4.16157 -0.36673,-6.2427 4.5e-4,-1.96226 -8.7e-4,-3.92456 -0.006,-5.88679 -0.0105,-1.78106 -0.0195,-3.5633 -0.11618,-5.34171 -0.10432,-1.64711 -0.32584,-3.28747 -0.32992,-4.93924 -9.5e-4,-1.49024 -0.004,-2.98049 -0.005,-4.47074 -0.004,-1.20901 -0.004,-2.41798 -9.4e-4,-3.62699 2.7e-4,-1.31365 -9.4e-4,-2.62725 -9.4e-4,-3.9409 0.004,-1.17097 0.008,-2.34262 0.0766,-3.51171 0.0741,-1.1832 0.18093,-2.36201 0.36614,-3.53089 -8.9e-4,-1.02033 -0.004,-2.04066 -3.5e-4,-3.061 0.005,-1.13059 0.0117,-2.2619 0.0699,-3.39095 0.0768,-0.99373 0.21545,-1.97568 0.38687,-2.95456 0.0244,-1.00389 0.0647,-2.00961 0.21279,-3.00206 0.14632,-0.96626 0.28946,-1.91686 0.24356,-2.90281 0.0334,-0.85482 0.0774,-1.71482 0.26823,-2.54755 0.18773,-0.79893 0.16461,-1.59562 0.14914,-2.4205 4.3e-4,-0.99425 -8.7e-4,-1.98912 0.0428,-2.982454 0.0571,-1.008511 0.15678,-2.013649 0.38078,-2.995573 0.19423,-0.982736 0.19866,-2.006858 0.4724,-2.975118 0.20807,-0.940665 0.25241,-1.921104 0.50594,-2.85369 0.0727,-0.840377 0.19723,-1.668756 0.44605,-2.469637 0.0758,-0.833349 0.20393,-1.654265 0.48163,-2.437744 0.1071,-0.880069 0.35469,-1.718248 0.45795,-2.594384 0.11888,-0.926887 0.3498,-1.813186 0.55497,-2.716595 0.18295,-0.835141 0.38745,-1.651226 0.50294,-2.503253 0.23074,-0.828112 0.52995,-1.621909 0.66858,-2.4813 0.0816,-0.753474 0.25566,-1.450765 0.56003,-2.132934 0.14682,-0.818788 0.41198,-1.592201 0.55414,-2.410667 0.13318,-0.691465 0.17573,-1.370442 0.2187,-2.075798 0.1005,-0.819096 0.231,-1.629735 0.54457,-2.387201 0.14781,-0.872355 0.42975,-1.701503 0.52382,-2.585381 0.16676,-0.845081 0.36457,-1.678528 0.52663,-2.523665 0.19813,-0.605852 0.3,-1.226922 0.52636,-1.82121 0.19192,-0.5698 0.1523,-1.211899 0.39917,-1.771269 0.17166,-0.518431 0.0306,-1.106572 0.0744,-1.650891 -3.8e-4,-0.588351 9.4e-4,-1.176701 9.4e-4,-1.765067 0.004,-0.529996 0.006,-1.059992 0.008,-1.589974 -0.004,-0.453117 -0.0105,-0.910254 -0.13868,-1.345648 -0.23576,-0.483472 -0.70167,-0.721162 -1.10095,-1.013481 -0.50495,-0.266196 -1.03569,-0.477003 -1.5961,-0.532181 -0.73527,-0.139447 -1.45343,-0.353237 -2.17624,-0.554903 -0.7683,-0.167462 -1.51601,-0.439412 -2.29469,-0.547735 -0.78903,-0.1621 -1.56772,-0.341658 -2.37718,-0.262891 -0.87466,-0.0042 -1.75028,-0.0056 -2.62331,-0.07253 -0.78612,-0.07477 -1.56069,-0.215457 -2.33346,-0.391614 -0.86236,-0.07701 -1.73009,-0.0112 -2.59448,-0.03332 -0.88877,0 -1.77753,0 -2.66631,0 -0.88877,0 -1.77752,0 -2.66627,0 -0.88846,0 -1.77692,0 -2.66536,1.5e-5 -0.88811,0 -1.77622,1.3e-5 -2.6643,-4.3e-5 -0.90616,-6.9e-5 -1.81231,-1.82e-4 -2.71847,-4.76e-4 -1.0021,-5.04e-4 -2.00421,-0.0013 -3.00629,-5.04e-4 -0.90613,0.0013 -1.81225,9.57e-4 -2.71837,9.57e-4 -0.89921,-2.8e-5 -1.79842,-8.5e-5 -2.69764,-4.63e-4 -0.98469,-4.2e-4 -1.96936,-0.0013 -2.95403,-9.57e-4 -0.93159,9.57e-4 -1.86317,0.0013 -2.79477,0.0013 -0.88869,4.48e-4 -1.77739,9.57e-4 -2.66608,0.0013 -0.8891,9.56e-4 -1.7783,0.0042 -2.66729,-0.0126 -0.89719,-0.02437 -1.7958,-0.06482 -2.68435,-0.215723 -0.91796,-0.157466 -1.83072,-0.343702 -2.76518,-0.269527 -1.00644,-4.77e-4 -2.01286,-3.5e-4 -3.01929,5.04e-4 -0.9848,-4.34e-4 -1.96959,-0.0013 -2.95439,-0.0013 -0.971357,4.91e-4 -1.942727,0.0013 -2.914087,4.2e-4 -1.04098,-5.04e-4 -2.08194,-5.04e-4 -3.1229,-2.25e-4 -1.08744,-9.57e-4 -2.174868,-9.57e-4 -3.262297,-9.57e-4 -1.1099,-4.75e-4 -2.2198,5.05e-4 -3.329701,-4.33e-4 -1.207136,9.57e-4 -2.41427,-0.0042 -3.621407,-9.57e-4 -1.152441,-7.1e-5 -2.304876,0.0013 -3.457314,0.0042 -0.985742,-4.35e-4 -1.971481,-0.0013 -2.957222,-0.0013 -1.005,5.04e-4 -2.009995,0.0013 -3.014994,-4.34e-4 -1.150429,-9.57e-4 -2.300859,-4.9e-4 -3.451294,-9.57e-4 -1.168409,9.57e-4 -2.336825,-0.0013 -3.505238,9.57e-4 -1.014791,0.0013 -2.029581,4.2e-4 -3.044371,0.0013 -0.888767,0 -1.777539,0 -2.666305,0 -0.888771,0 -1.777538,0 -2.66631,0 -0.888766,0 -1.777538,0 -2.666305,-1.4e-5 -0.888767,-1.3e-5 -1.777528,-2.8e-5 -2.666296,4.2e-5 -0.888793,8.4e-5 -1.777591,2.38e-4 -2.666384,0.0013 -0.889153,9.57e-4 -1.778307,0.0042 -2.667462,0.0042 -0.888828,-0.0013 -1.77854,-0.0042 -2.665886,-0.06734 -0.874559,-0.07938 -1.74059,-0.220902 -2.591022,-0.467595 -0.962854,-0.195099 -1.93003,-0.359117 -2.879129,-0.633951 -1.904353,-0.366888 -3.832691,-0.619853 -5.759643,-0.775105 0,0 3.577847,-2.846508 3.577847,-2.846508 z"
       inkscape:connector-curvature="0"
       style="stroke-width:0.46408895" />
    <path
       id="path3786"
       d="m 88.463545,212.83324 c 3.596212,0.46939 7.217358,0.62995 10.833988,0.76054 2.110387,0.0729 4.221757,0.0869 6.332987,0.0927 2.09956,0.005 4.19913,0.005 6.29869,-5e-4 1.58755,-0.002 3.17508,-0.01 4.76261,-0.0126 0.96244,0.0876 1.89242,-0.18005 2.8373,-0.33023 0.3942,-0.11746 0.83266,-0.0166 1.22547,-0.13216 0.15089,-0.0441 0.24523,-0.15415 0.35685,-0.26043 -1.19658,0.74799 -2.39315,1.496 -3.58973,2.24403 0.2984,-0.97584 0.19134,-2.06822 0.28134,-3.09434 0.096,-1.2533 0.35145,-2.4846 0.66823,-3.6894 0.28113,-0.98787 0.36991,-2.02039 0.56919,-3.0288 0.20673,-0.93247 0.24338,-1.89279 0.44329,-2.82574 0.22285,-0.86721 0.29471,-1.76319 0.33894,-2.6596 0.0368,-1.10009 0.0335,-2.20118 0.0329,-3.30184 -9.4e-4,-1.00953 -0.004,-2.01901 -0.004,-3.0285 -8.9e-4,-0.98868 -8.9e-4,-1.97735 -8.9e-4,-2.96601 -0.0216,-1.00869 0.19411,-1.99736 0.3101,-2.99308 0.10372,-0.97668 0.12057,-1.9608 0.13239,-2.94305 0.008,-0.98818 0.005,-1.97639 0.004,-2.9646 -9.5e-4,-0.98918 -0.002,-1.97837 -0.002,-2.96755 0.0513,-0.91683 -0.0208,-1.80277 -0.18301,-2.69885 -0.0927,-0.92739 -0.32484,-1.8084 -0.60513,-2.68341 -0.33137,-1.02753 -0.59209,-2.07807 -0.92559,-3.10465 -0.38213,-0.93934 -0.75979,-1.8779 -1.12608,-2.82491 -0.46908,-0.96259 -0.89881,-1.94161 -1.30599,-2.9377 -0.36437,-0.87838 -0.77577,-1.70529 -0.99453,-2.64801 -0.2523,-0.74392 -0.40933,-1.5163 -0.65613,-2.26145 -0.24799,-0.8094 -0.50349,-1.61443 -0.80918,-2.39909 -0.30634,-0.71695 -0.54283,-1.46426 -0.81625,-2.19624 -0.24763,-0.71707 -0.53018,-1.41641 -0.81066,-2.1187 -0.28704,-0.78575 -0.53685,-1.59345 -0.87953,-2.35235 -0.29394,-0.71539 -0.55037,-1.45471 -0.7847,-2.19806 -0.29344,-0.70557 -0.65352,-1.37083 -0.91219,-2.09418 -0.20361,-0.54306 -0.6688,-0.76822 -1.16403,-0.85319 -0.54721,-0.0479 -1.09685,-0.0348 -1.64521,-0.0289 -0.7207,0.008 -1.44142,0.008 -2.16214,0.01 -0.87239,9e-4 -1.74479,9e-4 -2.61719,9e-4 -0.74683,0.23905 -1.53367,0.27481 -2.277537,0.51027 -0.66717,0.32408 -1.49188,0.17784 -2.12771,0.55398 -1.3981,0.81712 -3.62235,2.15217 2.734557,-1.77467 0.10663,-0.0657 -0.19933,0.15693 -0.294097,0.24238 -0.1086,0.098 -0.21041,0.20506 -0.31562,0.30758 -0.63101,0.67688 -1.25603,1.38464 -1.6762,2.24696 -0.37185,0.89564 -0.73813,1.79586 -0.98981,2.7432 -0.23515,0.93136 -0.51479,1.84274 -0.8081,2.75247 -0.26445,0.87424 -0.46476,1.76741 -0.68972,2.65389 -0.23714,0.85666 -0.54455,1.68545 -0.75182,2.55198 -0.26334,0.83048 -0.47035,1.67944 -0.70683,2.51955 -0.21095,0.95392 -0.46744,1.89582 -0.65377,2.85651 -0.0801,0.90655 -0.29542,1.7813 -0.46518,2.66902 -0.098,0.8629 -0.19445,1.7134 -0.37289,2.56118 -0.204666,0.96992 -0.230335,1.96902 -0.257028,2.96028 -0.124411,1.15098 -0.287617,2.2938 -0.374534,3.45009 -0.146132,1.05893 -0.338907,2.1061 -0.439802,3.17254 -0.19236,1.14779 -0.319732,2.30724 -0.493351,3.45806 -0.157041,1.09023 -0.350826,2.1634 -0.611328,3.2282 -0.219018,0.88748 -0.26963,1.80665 -0.302034,2.72148 -0.110789,0.98874 -0.283493,1.9648 -0.372712,2.95721 -0.08249,1.10037 -0.08424,2.20562 -0.08915,3.30905 -0.0022,1.03365 4.41e-4,2.06731 0.0019,3.10098 0.0013,0.99013 0.0013,1.98027 0.0019,2.97041 -3.39e-4,1.00852 0.0013,2.01701 -0.0013,3.02551 -0.0013,1.11553 -5.2e-5,2.23104 4.41e-4,3.34656 4.4e-4,1.0086 8.79e-4,2.01721 8.79e-4,3.02581 -0.0013,0.94102 8.81e-4,1.88206 0.0022,2.82308 0.03427,0.40663 -0.02807,0.779 -0.134378,1.16335 0,0 -4.028292,2.03681 -4.028292,2.03681 v 0 c 0.206643,-0.30758 0.264086,-0.5731 0.224992,-0.96728 0.0013,-0.94186 0.0035,-1.88373 0.0022,-2.82558 9.2e-5,-1.00893 2.48e-4,-2.01785 8.81e-4,-3.02679 8.78e-4,-1.11576 0.0022,-2.23155 8.78e-4,-3.34732 -0.0027,-1.00787 -8.78e-4,-2.01577 -0.0019,-3.02365 -1.14e-4,-0.99005 -2.97e-4,-1.98013 -8.79e-4,-2.97018 -8.8e-4,-1.03506 -0.0022,-2.07015 -4.3e-5,-3.10522 0.0046,-1.11533 0.0046,-2.23218 0.06868,-3.34563 0.07532,-0.98587 0.209732,-1.9607 0.383369,-2.93113 0.02419,-0.94546 0.0583,-1.89698 0.257068,-2.82095 0.248567,-1.06008 0.511198,-2.10397 0.634838,-3.19604 0.196836,-1.13351 0.271583,-2.29125 0.503667,-3.41938 0.08645,-1.06691 0.247788,-2.11899 0.447273,-3.16685 0.07797,-1.14916 0.201496,-2.29148 0.383489,-3.42629 0.02186,-1.01678 0.03281,-2.04227 0.210774,-3.04341 0.170358,-0.84776 0.344598,-1.67488 0.379606,-2.54838 0.147214,-0.89652 0.421565,-1.75723 0.468212,-2.67303 0.166331,-0.98073 0.446395,-1.92504 0.632777,-2.90015 0.229257,-0.83557 0.413018,-1.68587 0.718662,-2.49288 0.178172,-0.88815 0.482217,-1.72216 0.735732,-2.5846 0.289027,-0.85975 0.403283,-1.79403 0.687004,-2.65933 0.26449,-0.91431 0.602599,-1.79511 0.823539,-2.72686 0.22023,-0.98117 0.58029,-1.9008 0.95447,-2.81974 0.35112,-0.95234 0.96649,-1.69346 1.60991,-2.42016 1.52701,-1.6636 3.48882,-2.76617 5.453597,-3.66568 0.7185,-0.15526 1.44147,-0.28621 2.14753,-0.50718 0.77421,-0.16338 1.55188,-0.3448 2.3369,-0.41779 0.87281,-1.8e-4 1.74563,-3.2e-4 2.61844,-0.005 0.72249,-0.005 1.44497,-0.01 2.16744,-0.0149 0.57226,4.9e-4 1.15279,-0.0206 1.71361,0.12782 0.59581,0.22533 1.12472,0.58124 1.38025,1.25503 0.24991,0.73498 0.62572,1.39864 0.91982,2.11146 0.22007,0.72576 0.47927,1.44038 0.75533,2.14025 0.34668,0.76444 0.60155,1.57774 0.88758,2.37145 0.28874,0.70235 0.56797,1.40805 0.81781,2.12796 0.27945,0.72679 0.49985,1.4815 0.81227,2.19373 0.30778,0.79326 0.57311,1.60332 0.82283,2.42125 0.25394,0.76309 0.41594,1.55054 0.67679,2.31203 0.19268,0.92118 0.60182,1.7154 0.94963,2.57067 0.4106,0.9977 0.83346,1.98395 1.31118,2.9454 0.37389,0.95445 0.74632,1.90692 1.14005,2.85194 0.33083,1.02829 0.59697,2.07654 0.92649,3.10519 0.28834,0.89473 0.55823,1.78992 0.64016,2.74277 0.16885,0.92693 0.28928,1.83632 0.21979,2.78792 2.1e-4,0.98904 4.4e-4,1.9781 0.002,2.96714 8.9e-4,0.99003 0.004,1.9801 -9.4e-4,2.97015 -0.008,0.99801 -0.0201,1.99767 -0.11071,2.99155 -0.10163,0.98211 -0.32144,1.95163 -0.33399,2.9395 2e-5,0.98859 6e-5,1.97717 4.3e-4,2.96575 4.5e-4,1.00989 0.002,2.01978 0.002,3.02966 0,1.10716 8.8e-4,2.2145 -0.0242,3.32135 -0.0277,0.92286 -0.0786,1.85029 -0.29348,2.74678 -0.22517,0.92825 -0.27922,1.87385 -0.45301,2.81581 -0.2097,1.01763 -0.30775,2.05312 -0.55955,3.06065 -0.31964,1.17907 -0.61338,2.37734 -0.7098,3.60879 -0.10101,1.09527 -0.0684,2.1882 -0.18301,3.27756 -3.87902,2.82321 -2.74806,2.74169 -5.56715,3.09322 -0.95222,0.16616 -1.89977,0.34424 -2.86908,0.26571 -1.57885,-0.005 -3.1577,-0.01 -4.73656,-0.008 -2.10356,0 -4.2071,0.006 -6.31065,0.008 -2.098967,-0.006 -4.197507,-0.0528 -6.295007,-0.14305 -3.638923,-0.15562 -7.279702,-0.33975 -10.903199,-0.75851 0,0 3.581134,-2.82057 3.581134,-2.82057 z"
       inkscape:connector-curvature="0"
       style="stroke-width:0.46408895" />
    <path
       id="path3788"
       d="m 107.82435,113.03992 c -1.79363,-0.34759 -3.60175,-0.58999 -5.41657,-0.74503 -1.02511,-0.0425 -2.13137,0.0126 -3.114417,0.37298 -0.74465,0.29892 -1.53561,0.50771 -2.24202,0.90788 -1.37049,0.71165 -3.44898,2.10672 2.72197,-1.78076 0.984137,-0.61995 -0.88812,0.64173 -1.07125,0.78673 -0.61465,0.49786 -1.18167,1.05629 -1.72428,1.64731 -0.47157,0.67294 -0.95733,1.33312 -1.38557,2.04208 -0.46594,0.80207 -0.84419,1.66695 -1.1927,2.53884 -0.33389,0.75203 -0.65657,1.50985 -0.91693,2.29775 -0.34202,0.76374 -0.53877,1.57189 -0.73789,2.38997 -0.272305,0.78841 -0.392408,1.61272 -0.459545,2.44924 -0.05808,0.96331 -0.05553,1.92946 -0.05681,2.89445 4.42e-4,0.99025 0.0024,1.98049 0.0035,2.97072 8.85e-4,0.98957 8.85e-4,1.97912 0.0011,2.96869 0.02479,0.9315 0.284205,1.79975 0.535245,2.67612 0.27257,0.69677 0.5572,1.37953 0.9047,2.03436 0.33036,0.69107 0.73371,1.34992 1.22234,1.91464 0.59054,0.62503 1.3227,1.06803 2.04769,1.47117 0.84158,0.51398 1.68775,1.00911 2.61356,1.30349 0.863767,0.22968 1.755157,0.24574 2.638387,0.26044 0.9124,-0.0806 1.7907,0.0884 2.6851,0.25319 0.87613,0.15877 1.7637,0.19835 2.64951,0.22277 0.88731,0.0166 1.77479,0.0148 2.66219,0.0126 0.89741,0.0737 1.76489,-0.1904 2.64675,-0.32978 0.89405,-0.26346 1.78549,-0.50797 2.63422,-0.92332 0.74495,-0.45937 1.50746,-0.8697 2.26087,-1.30426 -6.90247,4.14521 -3.96886,2.95647 -2.99976,1.72238 0.26853,-0.34196 0.47819,-0.73608 0.70036,-1.11505 0.42259,-0.58364 0.62817,-1.28419 0.89166,-1.95939 0.31179,-0.74212 0.62661,-1.48325 0.92099,-2.23418 0.35896,-0.87732 0.62633,-1.79458 0.95383,-2.68627 0.36185,-0.94498 0.62649,-1.93475 0.87944,-2.92183 0.23199,-0.95231 0.28413,-1.93833 0.3163,-2.91927 0.0219,-0.9866 0.0164,-1.97359 0.0146,-2.96037 0.0307,-0.98667 0.005,-1.95203 -0.22908,-2.90714 -0.23126,-0.87781 -0.50241,-1.75056 -0.87365,-2.56832 -0.31093,-0.76012 -0.61465,-1.5166 -0.97315,-2.2507 -0.43424,-0.8255 -0.88886,-1.64104 -1.38723,-2.42111 -0.3957,-0.65679 -0.85997,-1.33388 -1.46677,-1.76463 -0.5459,-0.37911 -1.08597,-0.74709 -1.69055,-1.0018 -0.63012,-0.34413 -1.29694,-0.55465 -1.87859,-1.00339 -0.62804,-0.40398 -1.18164,-0.93444 -1.83075,-1.29569 -0.4682,-0.3312 -1.00094,-0.50384 -1.50713,-0.74409 0,0 3.67074,-2.7294 3.67074,-2.7294 v 0 c 0.52286,0.23428 1.05189,0.45513 1.53572,0.78252 0.63671,0.40693 1.22051,0.90773 1.85163,1.32635 0.58268,0.38111 1.22632,0.60356 1.83477,0.92637 0.61546,0.29796 1.1863,0.6923 1.74879,1.09721 0.60587,0.52772 1.1216,1.19131 1.53411,1.91244 0.5027,0.80048 0.97756,1.62318 1.41799,2.46759 0.35955,0.73874 0.67309,1.49552 0.98028,2.26262 0.384,0.84484 0.66595,1.74611 0.90828,2.65225 0.26859,0.99209 0.33284,1.9938 0.28749,3.02753 0.002,0.99173 0.006,1.98358 -0.008,2.97522 -0.0245,1.01311 -0.063,2.03186 -0.27187,3.02271 -0.23439,1.0102 -0.52208,2.01044 -0.8534,2.98522 -0.35732,0.87505 -0.58638,1.80156 -0.95275,2.67129 -0.2534,0.77044 -0.6011,1.50067 -0.91379,2.24145 -0.26024,0.70149 -0.46282,1.4261 -0.86007,2.05518 -0.53993,0.81062 0.0579,-0.12068 -0.44723,0.78043 -1.0814,1.92897 -2.75591,2.48206 -4.74884,3.65689 -0.74496,0.45221 -1.52608,0.83142 -2.28332,1.25704 -0.87829,0.357 -1.77956,0.63807 -2.6984,0.83392 -0.89122,0.15692 -1.77792,0.34193 -2.68587,0.27139 -0.89015,1.5e-4 -1.7805,0.002 -2.67038,-0.0255 -0.89822,-0.0373 -1.79652,-0.10122 -2.68301,-0.27594 -0.88051,-0.16024 -1.755907,-0.23092 -2.649367,-0.1967 -0.91086,-0.0304 -1.82933,-0.0798 -2.7082,-0.37387 -0.92956,-0.34894 -1.79342,-0.85909 -2.65632,-1.37447 -0.759197,-0.44958 -1.529304,-0.91923 -2.136284,-1.60937 -0.493352,-0.60773 -0.926348,-1.28048 -1.268843,-2.00609 -0.368053,-0.68596 -0.663468,-1.40407 -0.953453,-2.13398 -0.258795,-0.92471 -0.539516,-1.83275 -0.594944,-2.81071 -5.9e-5,-0.9894 -1.16e-4,-1.97882 -8.81e-4,-2.96826 -8.81e-4,-0.99048 -0.0027,-1.98098 -0.0039,-2.97146 -9.1e-5,-0.9758 -0.0035,-1.95233 0.03968,-2.92725 0.05199,-0.86459 0.128524,-1.73409 0.412283,-2.54934 0.263448,-0.79169 0.301083,-1.67426 0.737197,-2.39972 0.225079,-0.80587 0.526186,-1.59405 0.904287,-2.32518 0.307973,-0.90821 0.729005,-1.77766 1.163888,-2.61605 0.396766,-0.75823 0.920441,-1.39739 1.3487,-2.12669 0.50307,-0.65684 1.10641,-1.18495 1.69087,-1.74694 1.89573,-1.41518 3.80736,-2.86446 5.923957,-3.856 0.75233,-0.30985 1.50625,-0.61992 2.28341,-0.84514 1.04668,-0.22664 2.12159,-0.35513 3.18608,-0.22643 1.82209,0.18354 3.63522,0.45426 5.44201,0.77399 0,0 -3.60284,2.81319 -3.60284,2.81319 z"
       inkscape:connector-curvature="0"
       style="stroke-width:0.46408895" />
    <path
       id="path3790"
       d="m 118.04197,163.09551 c 1.12981,-1.40372 2.30231,-2.75046 3.58349,-3.98348 1.80458,-1.34944 3.64247,-2.90695 5.69048,-3.68017 0.5416,-0.12559 1.09818,-0.13357 1.6494,-0.13511 0.50793,0.16746 0.97548,0.38655 1.44465,0.64803 0.40222,0.24805 0.82665,0.30772 1.22717,0.55886 0.43955,0.3644 0.91617,0.54191 1.21215,1.07469 0.25048,0.41431 0.61469,0.67915 0.85362,1.10698 0.33143,0.41156 0.52837,0.90894 0.64907,1.43861 0.0981,0.59081 0.10429,1.19319 0.10744,1.792 0.0304,0.63148 -9.4e-4,1.23867 -0.17372,1.84212 -0.12471,0.69108 -0.42146,1.26982 -0.77928,1.8376 -0.45938,0.56158 -0.8913,1.14668 -1.27781,1.77358 -0.33607,0.52961 -0.73703,1.00758 -1.16972,1.44036 -0.60273,0.63615 -1.19473,1.25111 -1.89474,1.75406 -1.39416,0.86907 -2.78348,1.74781 -4.18249,2.60716 -0.61317,0.37664 -0.1997,0.0586 -0.83601,0.39638 -0.12754,0.0677 -0.48882,0.31593 -0.36616,0.23781 0.81263,-0.51748 9.35022,-5.96856 -0.60435,0.38677 -0.324,0.15507 -0.67071,0.20415 -1.01627,0.25743 0,0 3.52652,-2.9661 3.52652,-2.9661 v 0 c 0.32454,-0.0892 0.6449,-0.18171 0.93448,-0.37685 -1.16377,0.7507 -4.6637,2.98605 -3.49131,2.25213 1.37338,-0.85979 2.72377,-1.76442 4.09439,-2.62967 0.1252,-0.079 0.68291,-0.34137 0.80599,-0.40257 0.13771,-0.0685 0.54051,-0.29661 0.4113,-0.21002 -1.1238,0.7533 -2.26482,1.47431 -3.39723,2.21149 0.73844,-0.43426 1.3553,-0.98636 1.91819,-1.6684 0.44242,-0.4068 0.83315,-0.84196 1.21575,-1.31328 0.36364,-0.6438 0.7534,-1.29827 1.27006,-1.79871 0.3602,-0.51799 0.74258,-1.01765 0.83372,-1.68866 0.16393,-0.57173 0.31482,-1.08735 0.23698,-1.70459 -9.5e-4,-0.56541 8.8e-4,-1.13306 -0.0654,-1.69478 -0.0866,-0.4903 -0.27845,-0.91617 -0.57718,-1.29304 -0.23777,-0.41424 -0.64142,-0.66749 -0.85355,-1.10803 -0.24047,-0.41839 -0.75019,-0.54168 -1.08739,-0.84889 -0.40067,-0.20305 -0.8478,-0.28056 -1.22215,-0.55663 -0.40992,-0.22793 -0.86326,-0.42249 -1.3231,-0.45261 -0.52527,0.0206 -1.06173,0.0446 -1.55295,0.27525 -1.47358,0.75002 -0.32694,0.17708 3.26665,-2.15085 0.0922,-0.0598 -0.18754,0.11356 -0.27609,0.17986 -0.3659,0.27326 -0.73363,0.52768 -1.11739,0.77414 -1.32075,1.17448 -2.50749,2.51089 -3.60283,3.94369 0,0 -4.06429,1.87355 -4.06429,1.87355 z"
       inkscape:connector-curvature="0"
       style="stroke-width:0.46408895" />
    <path
       id="path3792"
       d="m 132.66474,137.12664 c -0.0214,2.14099 -0.0105,4.28216 -9.5e-4,6.42321 0.005,1.20631 0.008,2.41265 0.008,3.61899 8.9e-4,0.98487 4.5e-4,1.96971 4.5e-4,2.95458 -5e-5,0.98544 -10e-5,1.9709 -1.1e-4,2.95634 1e-5,0.63923 -8.8e-4,1.27843 9.5e-4,1.91765 0,0 -3.93647,2.23219 -3.93647,2.23219 v 0 c 9.4e-4,-0.63978 9.4e-4,-1.27958 9.4e-4,-1.91939 -1e-5,-0.98542 -4e-5,-1.97082 -1.2e-4,-2.95624 -1e-5,-0.98508 -1.2e-4,-1.97017 4.5e-4,-2.95524 9.4e-4,-1.20968 0.004,-2.41937 0.008,-3.62905 0.008,-2.14024 0.0195,-4.28065 -9.4e-4,-6.42087 0,0 3.9188,-2.22217 3.9188,-2.22217 z"
       inkscape:connector-curvature="0"
       style="stroke-width:0.46408895" />
    <path
       id="path3794"
       d="m 127.84285,145.92132 c 1.92285,0.0166 3.84578,0.008 5.76865,0.002 0.92568,-0.006 1.85138,-0.008 2.77707,-0.01 0.40355,-2.5e-4 0.80708,-5e-4 1.21063,-0.002 0,0 -3.58117,2.89567 -3.58117,2.89567 v 0 c -0.40206,-0.002 -0.80409,-0.002 -1.20616,-0.002 -0.91827,-0.002 -1.83657,-0.005 -2.75485,-0.01 -1.92412,-0.006 -3.84829,-0.0149 -5.7724,0.002 0,0 3.55823,-2.87708 3.55823,-2.87708 z"
       inkscape:connector-curvature="0"
       style="stroke-width:0.46408895" />
    <path
       id="path3796"
       d="m 85.549758,174.99839 c -0.286508,-1.96323 -0.440978,-3.94583 -0.804498,-5.89395 -0.229524,-1.01935 -0.284794,-2.06981 -0.524036,-3.08498 -0.179912,-0.87079 -0.380663,-1.73733 -0.629295,-2.58737 -0.244677,-0.83171 -0.605833,-1.61684 -0.97294,-2.38903 -0.433487,-0.80852 -0.753611,-1.6855 -1.151714,-2.51466 -0.273722,-0.60824 -0.589654,-1.19491 -0.93642,-1.75478 -0.335367,-0.59836 -0.58374,-1.25058 -0.896153,-1.86251 -0.313345,-0.64812 -0.567102,-1.33191 -0.888639,-1.97483 -0.305681,-0.69289 -0.557042,-1.42162 -0.787471,-2.15101 -0.333414,-0.66989 -0.536701,-1.39014 -0.665589,-2.13871 -0.04297,-0.62723 -0.222379,-1.20336 -0.506565,-1.73877 -0.321535,-0.68658 -0.570518,-1.40624 -0.862947,-2.10786 -0.355284,-0.57048 -0.641965,-1.19024 -0.827145,-1.85318 -0.138518,-0.60544 -0.466005,-1.10463 -0.723113,-1.64904 -0.209161,-0.57481 -0.576467,-0.94731 -0.96586,-1.35705 -0.326191,-0.47261 -0.670083,-0.86379 -1.124474,-1.18729 -0.589214,-0.2431 -1.210748,-0.32808 -1.817128,-0.5189 -0.66648,-0.20887 -1.352444,-0.264 -2.040472,-0.29455 -0.70332,-0.0235 -1.407135,-0.0212 -2.110697,-0.0185 -0.702584,-0.0149 -1.21582,-0.0562 -1.881759,0.19938 -0.321082,0.18374 -0.733375,0.10374 -1.058906,0.24591 -0.134012,0.0584 -0.240265,0.17819 -0.369354,0.24907 6.231111,-4.36279 3.584766,-2.35787 2.303931,-1.08187 -0.44573,0.43768 -0.75248,0.93438 -0.976163,1.54011 -0.223341,0.58375 -0.417935,1.17227 -0.658521,1.74789 -0.210492,0.62961 -0.320743,1.30341 -0.20674,1.96681 0.0742,0.4557 0.350043,0.78725 0.522524,1.20189 0.17908,0.48331 0.479337,0.88999 0.716396,1.33909 0.330392,0.49087 0.714744,0.9247 1.188758,1.24333 0.607755,0.22221 1.194174,0.4933 1.815867,0.67481 0.623456,0.13692 1.262573,0.14433 1.895841,0.15358 0.583938,0.0379 1.184576,-0.0868 1.679473,-0.44537 -7.960926,5.03848 -1.028259,0.66535 0.540524,-0.39285 1.162094,-0.78387 -2.353592,1.51245 -3.532067,2.2654 -0.417048,0.26649 0.421388,-0.29789 0.563866,-0.44783 0.279114,-0.3349 0.307573,-0.7858 0.328877,-1.22005 0.0027,-0.49642 0.03594,-0.99775 -0.029,-1.49007 -0.09752,-0.44896 -0.223614,-0.8621 -0.496874,-1.21353 -0.132617,-0.37297 -0.455539,-0.46984 -0.700112,-0.69616 -0.291041,-0.2225 -0.599927,-0.32299 -0.94217,-0.38638 -0.229077,-0.027 -0.46217,-0.0126 -0.692746,-0.0112 0,0 3.589012,-2.8955 3.589012,-2.8955 v 0 c 0.251522,0.008 0.50421,0.0148 0.747433,0.0951 0.376059,0.1155 0.721361,0.30358 1.040364,0.55511 0.307016,0.19905 0.585102,0.45137 0.760314,0.80329 0.302324,0.42747 0.477584,0.89833 0.596731,1.42535 0.117235,0.52271 0.0774,1.05704 0.08214,1.59384 -0.0118,0.5149 -0.02465,1.03262 -0.205964,1.51573 -0.952596,1.5478 -3.862788,2.7703 -4.550556,3.20362 -0.0148,0.01 10.388226,-6.72618 -0.562083,0.36378 -0.593898,0.21143 -1.171036,0.34031 -1.800291,0.26228 -0.658315,-0.0225 -1.323428,-0.0556 -1.961359,-0.25443 -0.644669,-0.21616 -1.288208,-0.47309 -1.891987,-0.80185 -0.501541,-0.39873 -0.944388,-0.86725 -1.295541,-1.43405 -0.243089,-0.46445 -0.564357,-0.87803 -0.742449,-1.38093 -0.17843,-0.44676 -0.494298,-0.79864 -0.564248,-1.29637 -0.16025,-0.74995 -0.09915,-1.48667 0.08893,-2.23028 0.19153,-0.60635 0.506522,-1.1429 0.647251,-1.77554 0.290618,-0.58058 0.378993,-1.27099 0.924928,-1.6734 1.247951,-1.83071 4.0092,-2.48065 5.243377,-3.88861 0.465495,-0.22077 0.992798,-0.23314 1.468918,-0.43148 0.639939,-0.15581 1.299255,-0.065 1.949972,-0.0891 0.707659,0.002 1.415908,-0.005 2.122746,0.0409 0.710056,0.0515 1.413327,0.15321 2.097536,0.38085 0.63999,0.19345 1.326437,0.24397 1.89852,0.64923 0.451717,0.35462 0.815028,0.77737 1.162437,1.24958 0.436042,0.43656 0.791745,0.90753 1.045676,1.50331 0.263955,0.57593 0.60729,1.10261 0.765259,1.73372 0.154048,0.65025 0.452148,1.23666 0.787499,1.79206 0.285374,0.68734 0.532771,1.3889 0.847214,2.06088 0.309435,0.58159 0.535523,1.21266 0.57977,1.89548 0.106261,0.73071 0.299408,1.42537 0.630839,2.07195 0.214337,0.70551 0.465759,1.40356 0.750781,2.07515 0.320323,0.64221 0.577222,1.32238 0.887064,1.97097 0.305762,0.60106 0.552427,1.23903 0.880238,1.82685 0.349282,0.57974 0.682133,1.17442 0.95369,1.80467 0.396243,0.83092 0.714348,1.70965 1.155,2.51475 0.3765,0.79678 0.746424,1.6069 1.003265,2.46184 0.263089,0.85461 0.467501,1.73195 0.646444,2.61235 0.247664,1.02683 0.309115,2.08234 0.519027,3.12006 0.354596,1.95629 0.49179,3.94557 0.813496,5.909 0,0 -3.8879,2.29542 -3.8879,2.29542 z"
       inkscape:connector-curvature="0"
       style="stroke-width:0.46408895" />
    <path
       id="path3798"
       d="m 88.806062,171.13833 c 0.397725,1.77737 0.7538,3.56581 1.034924,5.37062 0.103898,0.70886 0.167407,1.42412 0.18426,2.14201 0.01676,0.23482 0.100466,0.28502 0.278522,0.36055 0,0 -3.719135,2.68528 -3.719135,2.68528 v 0 c -0.260278,-0.21085 -0.431059,-0.44216 -0.503365,-0.80066 -0.0031,-0.69944 -0.04033,-1.39796 -0.133414,-2.09042 -0.24799,-1.79857 -0.582161,-3.58186 -1.012466,-5.33786 0,0 3.870681,-2.32952 3.870681,-2.32952 z"
       inkscape:connector-curvature="0"
       style="stroke-width:0.46408895" />
    <path
       id="path3800"
       d="m 108.53336,110.90911 c -0.42258,1.82162 -0.77634,3.66173 -1.0313,5.52155 -0.11455,0.85236 -0.15241,1.71255 -0.16367,2.57309 -0.0399,0.58239 -0.002,1.11402 0.17279,1.66005 0.0737,0.51103 0.32787,0.93805 0.49653,1.41022 0.16499,0.56914 0.20276,1.16565 0.2219,1.75903 0.0564,0.69953 -0.0229,1.37434 -0.17027,2.05253 -0.1645,0.71062 -0.48537,1.34884 -0.77901,1.99816 -0.27029,0.60071 -0.32487,1.2621 -0.36351,1.92132 -0.0291,0.74177 -0.022,1.48459 -0.0214,2.22687 0.004,0.7339 0.005,1.46786 0.005,2.20179 3.1e-4,0.73079 -8.8e-4,1.4616 9.5e-4,2.1924 -9.5e-4,0.71407 3e-5,1.42815 -8.8e-4,2.14222 8.8e-4,0.74391 -0.002,1.48783 2.3e-4,2.23176 -9.5e-4,0.73815 4.5e-4,1.47626 -3.6e-4,2.21441 0.002,0.73039 -0.002,1.46079 0,2.1912 9e-5,0.8274 -9.5e-4,1.65484 -0.002,2.48225 0.0623,0.99593 -0.11796,1.96849 -0.25411,2.94612 -0.12938,0.94747 -0.1177,1.90482 -0.28862,2.84489 -0.14962,0.88794 -0.31488,1.76869 -0.4998,2.64848 -0.19572,0.94851 -0.24567,1.92099 -0.27712,2.89014 0.0423,1.01236 -0.13421,2.00112 -0.27128,2.99556 -0.13018,0.97335 -0.1608,1.95758 -0.18015,2.9399 -0.0135,0.98756 -0.0105,1.97528 -0.0105,2.96291 9.4e-4,0.98915 0.002,1.97833 0.002,2.9675 3e-4,0.98914 2.9e-4,1.97827 3e-4,2.96744 0,0.98912 -1e-5,1.97822 -1e-5,2.96733 0,0.98912 -3e-5,1.97823 -3e-5,2.96735 0,0.98911 0,1.97823 0,2.96735 0,0.98913 0,1.97825 0,2.96736 0.0512,1.01401 -0.035,2.00615 -0.18499,3.00405 -0.1565,0.97027 -0.21017,1.95416 -0.24156,2.93759 -0.038,0.99559 0.0164,1.99361 -0.0622,2.98644 -0.15591,1.13219 -0.24985,2.27102 -0.4579,3.3933 -0.24714,1.17939 -0.27654,2.39193 -0.40426,3.58904 -0.17527,1.13449 -0.30816,2.2737 -0.37721,3.42213 -0.0513,1.1215 -0.0523,2.24479 -0.0538,3.36743 3.3e-4,1.00695 0.002,2.01393 0.004,3.02089 0.0451,0.55301 0.16417,1.09387 0.25263,1.63951 0,0 -3.901327,2.30859 -3.901327,2.30859 v 0 c -0.0889,-0.57399 -0.20958,-1.14069 -0.2844,-1.71729 -8.8e-4,-1.00766 -0.002,-2.01532 -0.002,-3.02297 0.002,-1.1314 0.003,-2.26316 0.0452,-3.3938 0.052,-1.16076 0.173,-2.31372 0.3651,-3.4567 0.16261,-1.20115 0.14419,-2.42898 0.385297,-3.62055 0.21943,-1.10854 0.3284,-2.22764 0.47271,-3.35125 0.13397,-0.97385 0.0309,-1.9659 0.0792,-2.94822 0.025,-1.00236 0.0663,-2.00644 0.21539,-2.99713 0.14814,-0.97585 0.29102,-1.93478 0.21747,-2.93064 0,-0.98912 0,-1.97824 0,-2.96736 0,-0.98913 0,-1.97825 0,-2.96735 0,-0.98912 0,-1.97824 0,-2.96736 1e-5,-0.98909 2e-5,-1.97822 2e-5,-2.96734 0,-0.98907 1e-5,-1.97818 -2.2e-4,-2.96726 -3.1e-4,-0.98908 -8.8e-4,-1.97813 -0.002,-2.9672 -8.7e-4,-0.99059 -0.004,-1.98122 0.005,-2.97178 0.0148,-1.00045 0.0374,-2.00295 0.15526,-2.99625 0.12578,-0.98028 0.34485,-1.94738 0.29365,-2.94468 0.0245,-0.99536 0.0619,-1.99463 0.23933,-2.97358 0.17246,-0.88262 0.37821,-1.75036 0.49744,-2.64494 0.20126,-0.92966 0.21132,-1.86725 0.30606,-2.8165 0.12427,-0.95832 0.34574,-1.90432 0.28125,-2.87966 -8.8e-4,-0.82655 -0.002,-1.65313 -0.002,-2.47969 0.002,-0.73039 -0.002,-1.4608 0,-2.1912 -8.8e-4,-0.73798 8.9e-4,-1.47598 -3.6e-4,-2.21398 0.002,-0.74401 -8.8e-4,-1.48805 2.6e-4,-2.23206 -8.9e-4,-0.71373 4.3e-4,-1.42748 -8.9e-4,-2.14122 0.002,-0.73087 8.9e-4,-1.46174 1.8e-4,-2.1926 -4.5e-4,-0.73406 -9.4e-4,-1.4681 -0.004,-2.20215 -0.004,-0.74993 -0.008,-1.5 0.008,-2.24983 0.0259,-0.70291 0.0503,-1.42569 0.2938,-2.08453 0.23502,-0.66054 0.61268,-1.235 0.81325,-1.91687 0.14055,-0.64525 0.29903,-1.25905 0.22063,-1.93316 -0.0117,-0.54064 -0.0271,-1.08567 -0.15498,-1.61102 -0.15857,-0.48076 -0.44154,-0.90076 -0.50147,-1.42022 -0.19372,-0.60254 -0.30542,-1.16786 -0.24161,-1.81685 0.005,-0.88434 0.0395,-1.76825 0.15402,-2.64463 0.25502,-1.87308 0.62928,-3.72049 1.01609,-5.56457 0,0 3.96854,-2.11576 3.96854,-2.11576 z"
       inkscape:connector-curvature="0"
       style="stroke-width:0.46408895" />
    <path
       id="path3802"
       d="m 104.74914,111.10459 c 0.0221,-2.09365 0.0105,-4.18748 -1e-4,-6.2812 -0.004,-1.052 -0.006,-2.10402 -0.009,-3.15606 8.9e-4,-0.79112 -9.5e-4,-1.58221 -4.4e-4,-2.373348 0.0163,-0.826362 -0.0356,-1.655189 0.039,-2.478289 0.17078,-0.885599 0.28725,-1.778032 0.35101,-2.680614 0.002,-0.801371 0.0713,-1.576603 0.23617,-2.355461 0.15233,-0.63958 0.2108,-1.296492 0.24363,-1.954917 0.0234,-0.654377 0.0203,-1.309371 0.021,-1.964114 -0.0226,-0.717017 0.0445,-1.440978 -0.0386,-2.153529 -0.19329,-0.668744 -0.29242,-1.353979 -0.34879,-2.051703 -0.0603,-0.808666 -0.0582,-1.620804 -0.0602,-2.431597 -0.004,-0.825579 4e-5,-1.651185 0.002,-2.476764 -0.0842,-0.681819 -0.25814,-1.341434 -0.35146,-2.023435 -0.0467,-0.460595 -0.0269,-0.226518 -0.0588,-0.702345 0,0 3.92727,-2.263813 3.92727,-2.263813 v 0 c 0.0239,0.453832 0.009,0.230871 0.0447,0.668883 0.0843,0.708281 0.2523,1.389525 0.37431,2.08928 1e-4,0.825033 4.3e-4,1.65005 -0.002,2.47507 0.002,0.798655 4.4e-4,1.59815 0.0458,2.395588 0.0467,0.685837 0.12695,1.36242 0.33451,2.014558 0.12887,0.731971 0.0504,1.481498 0.0728,2.224528 0.002,0.661238 0.005,1.322756 -0.0121,1.983799 -0.02,0.683205 -0.0577,1.371381 -0.20934,2.036568 -0.15525,0.763667 -0.31218,1.495385 -0.27221,2.289602 -0.052,0.912146 -0.13422,1.822834 -0.33144,2.712521 -0.14713,0.789863 -0.034,1.609939 -0.0674,2.412445 4.5e-4,0.791347 -0.002,1.582694 -4.3e-4,2.374068 -0.002,1.055599 -0.006,2.111209 -0.009,3.166799 -0.0105,2.09372 -0.0224,4.1876 -1e-4,6.28129 0,0 -3.91883,2.22219 -3.91883,2.22219 z"
       inkscape:connector-curvature="0"
       style="stroke-width:0.46408895" />
    <path
       id="path3804"
       d="m 108.35444,72.79113 c -0.88556,1.529336 -1.79899,3.034732 -2.77858,4.491364 -0.42999,0.58576 -0.65881,1.293692 -0.96349,1.956119 -0.29301,0.665691 -0.64919,1.288387 -1.05909,1.871473 -0.36392,0.476722 -0.45963,1.09785 -0.70273,1.64158 -0.1908,0.531312 -0.48527,0.994764 -0.69706,1.514329 -0.23325,0.530416 -0.45432,1.057303 -0.75484,1.545885 -0.15984,0.370402 -0.4565,0.59713 -0.63369,0.950577 -0.23555,0.351193 -0.37662,0.747959 -0.48981,1.163275 -0.18441,0.342877 -0.341747,0.689016 -0.451577,1.070479 -0.19525,0.405432 -0.28487,0.871011 -0.50266,1.25995 -0.20032,0.482645 -0.51097,0.886103 -0.68216,1.382778 -0.15599,0.614 -0.48232,1.129169 -0.76536,1.672102 -0.23757,0.546811 -0.43233,1.115449 -0.70226,1.644493 -0.29562,0.479719 -0.3484,1.062568 -0.54945,1.585494 -0.16034,0.591122 -0.39574,1.147398 -0.59785,1.720656 -0.13469,0.704836 -0.33702,1.39017 -0.47966,2.092986 -0.23083,0.78801 -0.41464,1.59288 -0.65252,2.37847 -0.27696,0.77966 -0.35691,1.6079 -0.40591,2.43681 -0.035,0.63386 -0.0618,1.31364 0.23622,1.88073 0.22859,0.43457 0.38453,0.89222 0.63554,1.30874 0.2374,0.40294 0.22601,0.96666 0.58145,1.27294 0.25335,0.39475 0.69015,0.49261 1.02086,0.75499 0.36213,0.26066 0.76565,0.34037 1.18545,0.39193 0.43875,0.0369 0.88025,0.0248 1.32008,0.0248 0,0 -3.58055,2.89439 -3.58055,2.89439 v 0 c -0.45455,-0.002 -0.91286,0.006 -1.36221,-0.0817 -0.45925,-0.0975 -0.89204,-0.26853 -1.28552,-0.55598 -0.39588,-0.21832 -0.775794,-0.46997 -1.071168,-0.84468 -0.328776,-0.39828 -0.446141,-0.8728 -0.629429,-1.36088 -0.262155,-0.42698 -0.416487,-0.89491 -0.649728,-1.3416 -0.332274,-0.65183 -0.408131,-1.39713 -0.347411,-2.13687 0.03664,-0.86457 0.08487,-1.73893 0.348089,-2.56182 0.258341,-0.7642 0.391483,-1.56336 0.679879,-2.316 0.119464,-0.72799 0.357174,-1.40987 0.452025,-2.14112 0.149276,-0.613919 0.485139,-1.128108 0.577613,-1.763081 0.062,-0.153392 0.15878,-0.28903 0.20957,-0.447448 0.12334,-0.384697 0.0808,-0.838921 0.32619,-1.179123 0.25523,-0.534953 0.54596,-1.052208 0.69964,-1.641791 0.25291,-0.547792 0.61078,-1.008414 0.79871,-1.592214 0.16849,-0.65316 0.36741,-0.911459 0.64007,-1.478683 0.0341,-0.06665 0.0681,-0.133006 0.10205,-0.199552 0.0402,-0.03906 0.0935,-0.06608 0.1203,-0.117325 0.13602,-0.260105 0.10944,-0.639496 0.30924,-0.875435 0.16375,-0.354764 0.17336,-0.801637 0.43567,-1.103507 0.24543,-0.332824 0.18004,-0.882758 0.47164,-1.209141 0.21394,-0.33225 0.2986,-0.702177 0.64618,-0.922464 0.21136,-0.538592 0.6347,-0.955756 0.75687,-1.550072 0.15335,-0.252334 0.19027,-0.523261 0.33376,-0.779124 0.0815,-0.145257 0.21582,-0.267665 0.28487,-0.422793 0.0407,-0.09142 0.0567,-0.194217 0.0851,-0.291326 0.0657,-0.148211 0.16666,-0.275968 0.22549,-0.427777 0.16328,-0.421379 0.1797,-0.921189 0.4506,-1.298409 0.37659,-0.587931 0.810667,-1.12259 1.087827,-1.784556 0.29035,-0.695863 0.56662,-1.401876 0.95067,-2.049883 0.97147,-1.460566 1.96352,-2.904708 2.7871,-4.47994 0,0 4.03595,-1.953068 4.03595,-1.953068 z"
       inkscape:connector-curvature="0"
       style="stroke-width:0.46408895" />
    <path
       id="path3806"
       d="m 106.48796,100.78116 c 2.17357,-2.631412 3.81306,-3.360735 6.84985,-5.224283 0.44835,0.07127 0.74521,0.606216 0.92712,1.036919 0.25638,0.344627 0.43886,0.731074 0.53821,1.16238 0.12363,0.500804 0.44327,0.872788 0.67909,1.308097 0.23823,0.338579 0.20376,0.780077 0.32117,1.161787 0.31598,0.49399 0.12844,0.15914 0.26791,-0.0638 0.45822,-0.0804 0.7796,-0.393471 1.19013,-0.611588 -7.70354,4.684648 -0.80567,0.643118 1.44057,-0.875547 -11.43407,7.228685 9.71763,-6.18983 -2.09825,1.325785 1.53314,-1.038365 4.02512,-4.246048 5.39724,-2.677299 0.19468,0.567308 0.25772,1.198836 0.34226,1.802868 0.19459,0.611466 0.36392,1.225621 0.45827,1.866501 0.06,0.58943 0.0593,1.16537 0.26466,1.71996 0.11808,0.42596 0.4885,0.66119 0.77083,0.96336 0.26831,0.246 0.2391,0.52664 0.1174,0.83709 -0.10071,0.3029 -0.14235,0.5695 -0.30372,0.84377 -0.19614,0.30254 -0.24152,0.67349 -0.29927,1.03089 -0.13149,0.43913 -0.4356,0.74906 -0.62809,1.14659 -0.21253,0.48055 -0.22119,1.02019 -0.29561,1.53855 -0.13978,0.61347 -0.28613,1.21701 -0.52999,1.78998 -0.21341,0.43648 -0.23746,0.93902 -0.39783,1.39461 -0.16834,0.41526 -0.38701,0.8006 -0.55902,1.21341 0,0 -4.02346,2.05696 -4.02346,2.05696 v 0 c 0.15577,-0.43438 0.36077,-0.82477 0.54398,-1.24127 0.25414,-0.42563 0.23628,-0.90255 0.41189,-1.37151 0.21019,-0.56815 0.46273,-1.09261 0.5667,-1.70652 0.1522,-0.5262 0.0784,-1.10348 0.25292,-1.63112 0.16845,-0.45942 0.39123,-0.75137 0.62219,-1.14819 0.24172,-0.21093 0.1064,-0.78159 0.27785,-1.08358 0.21321,-0.38832 0.31058,-0.25962 0.32506,-0.78117 0.0139,-0.0326 0.0988,-0.28557 0.1303,-0.28733 0.021,-9.1e-4 0.28045,0.27581 0.014,-0.0167 -0.32046,-0.34619 -0.73575,-0.63724 -0.86202,-1.13829 -0.2218,-0.5942 -0.29138,-1.18836 -0.30968,-1.82893 -0.0791,-0.64493 -0.24091,-1.26347 -0.46123,-1.8668 -0.0622,-0.50314 -0.19551,-0.99528 -0.19208,-1.503377 -1.28968,-0.889618 -0.18152,-0.07588 3.46945,-2.468349 0.0861,-0.05643 -0.15328,0.143395 -0.23673,0.204507 -0.2467,0.180597 -0.52097,0.318041 -0.75295,0.525587 -1.3357,0.877142 -2.66882,1.759186 -4.00712,2.631442 -0.0891,0.0581 -0.36429,0.21754 -0.27502,0.15951 1.15442,-0.75046 2.31473,-1.489714 3.47079,-2.237057 0.0744,-0.04816 -0.15118,0.09185 -0.22591,0.139306 -0.0985,0.06273 -0.19581,0.127687 -0.29381,0.191306 -1.38002,0.896227 -2.76017,1.792225 -4.14028,2.688335 -2.38366,1.12495 4.79345,-3.247242 2.63238,-1.810044 -1.35387,0.900374 -2.71321,1.790574 -4.06981,2.685854 -0.38983,0.24342 -0.79651,0.40104 -1.19297,0.62434 -0.32118,0.0327 -0.52717,-0.35492 -0.68029,-0.62238 -0.14196,-0.35663 -0.0872,-0.76233 -0.28579,-1.09949 -0.25649,-0.48127 -0.60313,-0.89741 -0.74814,-1.44613 -0.0654,-0.411203 -0.274,-0.738706 -0.49543,-1.070985 -0.11408,-0.290109 -0.25682,-0.634287 -0.56129,-0.439467 7.11799,-4.632492 3.79162,-2.668923 2.64019,-1.663087 -0.68989,0.602646 -1.3169,1.299404 -1.93251,1.991459 0,0 -4.0643,1.87356 -4.0643,1.87356 z"
       inkscape:connector-curvature="0"
       style="stroke-width:0.46408895" />
    <path
       id="path3808"
       d="m 121.28015,103.70993 c 0.35587,-1.84115 0.4511,-3.70943 0.43119,-5.586292 -0.0318,-0.957956 0.008,-1.917759 -0.17706,-2.857821 -0.14044,-0.623171 -0.26101,-1.246397 -0.31879,-1.885781 -0.13779,-0.519551 -0.30615,-1.026363 -0.48891,-1.528287 -0.15561,-0.537963 -0.33022,-1.045963 -0.56318,-1.54765 -0.1544,-0.301784 -0.37354,-0.571369 -0.64956,-0.742358 -0.31722,-0.09324 -0.55142,-0.343129 -0.85723,-0.489128 -0.34551,-0.0441 -0.59288,-0.245964 -0.8959,-0.425621 -0.36229,-0.309373 -0.78361,-0.507833 -1.22539,-0.621169 -0.49786,-0.06048 -1.00002,-0.05586 -1.5002,-0.05614 -0.60476,9.57e-4 -1.20951,0.0042 -1.81427,0.0042 -0.65097,0.0013 -1.30195,0.0013 -1.9529,0.0013 -0.57636,-0.08218 -1.07096,0.192146 -1.61643,0.351026 -0.32791,0.07644 -0.66027,0.105284 -0.99353,0.132307 0,0 3.55842,-2.934573 3.55842,-2.934573 v 0 c 0.31938,-0.04143 0.63773,-0.0966 0.94712,-0.197018 0.55885,-0.170975 1.09399,-0.318179 1.68237,-0.2449 0.65047,-1.96e-4 1.30094,-4.76e-4 1.95141,-0.0013 0.60682,-0.0013 1.21367,-0.007 1.82048,-0.0042 0.52588,0.0098 1.06115,0.0056 1.57229,0.16098 0.45576,0.168204 0.87506,0.424361 1.28056,0.70912 0.28835,0.174112 0.58341,0.264473 0.88528,0.407126 0.2999,0.176717 0.58244,0.380623 0.88872,0.542737 0.30839,0.251942 0.58352,0.589205 0.76599,0.962981 0.23597,0.517185 0.43218,1.029723 0.57688,1.58814 0.201,0.547147 0.37965,1.097331 0.55518,1.655666 0.0418,0.620902 0.14303,1.227145 0.28392,1.830267 0.20715,0.975358 0.19685,1.960866 0.20584,2.960641 0.009,1.900538 -0.0638,3.79308 -0.3984,5.663187 0,0 -3.9539,2.1513 -3.9539,2.1513 z"
       inkscape:connector-curvature="0"
       style="fill:#4d4d4d;stroke-width:0.46408895" />
    <path
       style="fill:#333333;stroke-width:0.46880069"
       d="m 108.65863,146.95745 c -3.12198,0.21821 -2.54792,4.87635 -3.00742,7.24064 -1.88005,16.67663 -0.77587,33.63311 -2.61336,50.3329 -0.0867,3.16052 -0.47229,6.43382 -0.16057,9.52894 4.85732,-0.01 9.88652,0.52375 14.71764,-0.26467 1.55567,-1.55132 0.91365,-4.58589 1.64764,-6.64752 1.57616,-9.99314 1.43329,-20.21658 1.39101,-30.32553 -0.85479,-7.38021 -4.96211,-13.62929 -6.76288,-20.7183 -1.31511,-2.99924 -1.82422,-6.99047 -4.3502,-9.05372 -0.27953,-0.0808 -0.57415,-0.0939 -0.86186,-0.0927 z"
       id="path3826"
       inkscape:connector-curvature="0" />
    <path
       style="fill:#000000;stroke-width:0.46408895"
       id="path3834"
       d="m 122.15667,104.31075 c 0.087,-0.23251 0.17398,-0.46525 0.26879,-0.69398 0.0464,-0.10949 0.0699,-0.22759 0.10908,-0.34005 0.0212,-0.0752 0.052,-0.14562 0.0726,-0.22088 0.014,-0.0719 0.0196,-0.14396 0.041,-0.21414 0.0363,-0.0747 0.063,-0.1484 0.0766,-0.23241 0.0186,-0.0865 0.046,-0.16913 0.0578,-0.25752 0.002,-0.0907 0.0332,-0.17506 0.0495,-0.26283 0.0139,-0.0953 0.0156,-0.19224 0.0171,-0.28862 -0.008,-0.10683 0.0139,-0.20945 0.0316,-0.31335 0.0105,-0.11719 0.036,-0.23108 0.0549,-0.34655 0.0174,-0.10402 0.0216,-0.20975 0.0241,-0.31531 9.5e-4,-0.10472 8.7e-4,-0.20956 8.7e-4,-0.31434 -2e-5,-0.0764 -0.002,-0.0374 0.005,-0.11691 0,0 0.49499,-0.27196 0.49499,-0.27196 v 0 c -0.0105,0.0724 -0.008,0.0357 -0.008,0.10977 2.8e-4,0.10528 4.4e-4,0.21042 -4.4e-4,0.31564 -0.002,0.10823 -0.004,0.21685 -0.0207,0.32371 -0.017,0.11607 -0.0467,0.22902 -0.0542,0.34658 -0.0153,0.10164 -0.0447,0.20005 -0.0356,0.3043 -8.9e-4,0.0994 -0.002,0.19874 -0.0129,0.29746 -0.012,0.0891 -0.0453,0.17077 -0.0509,0.2602 -0.008,0.0899 -0.0259,0.17524 -0.0575,0.25884 -0.009,0.0845 -0.019,0.17487 -0.0714,0.24133 -0.0203,0.0708 -0.041,0.13637 -0.0419,0.21225 -0.0197,0.0776 -0.047,0.15045 -0.0712,0.22517 -0.0374,0.11524 -0.072,0.23069 -0.11001,0.34578 -0.096,0.22754 -0.18798,0.45751 -0.2699,0.6918 0,0 -0.49932,0.25605 -0.49932,0.25605 z"
       inkscape:connector-curvature="0" />
    <path
       style="fill:#000000;stroke-width:0.46408895"
       id="path3836"
       d="m 122.21184,103.83906 c -0.0155,-0.27128 -0.0174,-0.54376 0.009,-0.81419 0.0127,-0.14672 0.0461,-0.29012 0.0971,-0.42594 0.0405,-0.10403 0.0996,-0.1947 0.16151,-0.28356 0.0465,-0.0757 0.0868,-0.15487 0.12773,-0.23447 0.0374,-0.0928 0.0882,-0.17762 0.12476,-0.27116 0.0354,-0.0811 0.0707,-0.16062 0.11106,-0.23853 0.0255,-0.058 0.0323,-0.12083 0.0363,-0.18411 0.002,-0.068 0.002,-0.13623 9.5e-4,-0.20417 -8.9e-4,-0.0747 1.3e-4,-0.14915 -1.9e-4,-0.22368 -0.006,-0.085 0.0176,-0.16469 0.0355,-0.24587 0.0152,-0.0771 0.0174,-0.15636 0.0195,-0.23505 8.9e-4,-0.0651 8.9e-4,-0.13035 6e-5,-0.19528 3.4e-4,-0.0631 -4e-5,-0.12643 1.6e-4,-0.18947 3.7e-4,-0.0776 1.6e-4,-0.155076 2.8e-4,-0.23257 4.5e-4,-0.103324 8.9e-4,-0.206636 8.9e-4,-0.30996 1.7e-4,-0.122367 1.8e-4,-0.244761 2e-4,-0.367141 0,-0.123766 0,-0.247755 -2e-5,-0.371619 3e-5,-0.121247 0.005,-0.242002 -0.0117,-0.362143 -0.0214,-0.124466 -0.0328,-0.250654 -0.0391,-0.377192 -0.005,-0.124327 -0.005,-0.248988 -0.005,-0.373497 4e-4,-0.114106 -3.4e-4,-0.228463 -2.7e-4,-0.342695 4.5e-4,-0.107105 2.1e-4,-0.21428 1e-5,-0.321442 10e-5,-0.109485 3.6e-4,-0.219013 4.4e-4,-0.328526 1.3e-4,-0.122366 1.5e-4,-0.244605 1.5e-4,-0.366915 0,-0.123767 0,-0.247547 0,-0.371313 -0.009,-0.122506 -0.0315,-0.243387 -0.043,-0.365907 -0.0216,-0.103606 -0.0391,-0.208261 -0.0589,-0.312342 -0.0233,-0.121946 -0.0607,-0.239398 -0.0866,-0.360559 -0.029,-0.14082 -0.0677,-0.278993 -0.10978,-0.415583 -0.0389,-0.127267 -0.0713,-0.257024 -0.10267,-0.386868 -0.038,-0.121245 -0.064,-0.246145 -0.0963,-0.369226 -0.0448,-0.134407 -0.0835,-0.271277 -0.1185,-0.409169 -0.038,-0.150438 -0.0738,-0.301169 -0.11764,-0.44966 -0.0468,-0.149892 -0.0963,-0.298495 -0.13977,-0.449731 -0.0509,-0.147286 -0.0985,-0.295344 -0.14438,-0.444591 -0.0374,-0.136787 -0.0792,-0.271278 -0.12659,-0.40406 -0.042,-0.124326 -0.0813,-0.249604 -0.12154,-0.374631 -0.0469,-0.120826 -0.0839,-0.245824 -0.1308,-0.366649 -0.0519,-0.120827 -0.0918,-0.248121 -0.14608,-0.367785 -0.0539,-0.126706 -0.11818,-0.247126 -0.1817,-0.36805 -0.0687,-0.114945 -0.13096,-0.233867 -0.19256,-0.353586 -0.0605,-0.102625 -0.1005,-0.218888 -0.16556,-0.318055 -0.0636,-0.104865 -0.12074,-0.214644 -0.18041,-0.322463 -0.0763,-0.120686 -0.15053,-0.242646 -0.2329,-0.358222 -0.0719,-0.116766 -0.15514,-0.223955 -0.2373,-0.331943 -0.0774,-0.101224 -0.15281,-0.204704 -0.23684,-0.299305 -0.0829,-0.09031 -0.16841,-0.177641 -0.26047,-0.256227 -0.0935,-0.08247 -0.18915,-0.163207 -0.29012,-0.234302 -0.10523,-0.08051 -0.22174,-0.139307 -0.32894,-0.216311 -0.10802,-0.0742 -0.22157,-0.137066 -0.3322,-0.206174 -0.11046,-0.06328 -0.22341,-0.121245 -0.33275,-0.186867 -0.1092,-0.06272 -0.22459,-0.114526 -0.32859,-0.187763 -0.0933,-0.06902 -0.20282,-0.09366 -0.30408,-0.141561 -0.10373,-0.049 -0.207,-0.09885 -0.31271,-0.14285 -0.10245,-0.02226 -0.20013,-0.05923 -0.30121,-0.0868 -0.10266,-0.02465 -0.20115,-0.06104 -0.30636,-0.07547 -0.0938,-0.03668 -0.1898,-0.0616 -0.28493,-0.09324 -0.10827,-0.0189 -0.21309,-0.05166 -0.32039,-0.07603 -0.10804,-0.02184 -0.21807,-0.02437 -0.32755,-0.02646 -0.11292,-0.0013 -0.22581,-2.8e-4 -0.33871,-4.9e-4 -0.12538,-1.5e-5 -0.25076,3.35e-4 -0.37614,4.9e-4 -0.11338,1.4e-4 -0.22674,1.67e-4 -0.34011,1.81e-4 -0.11107,1.4e-5 -0.22204,1.4e-5 -0.33305,0 -0.11106,0 -0.22212,0 -0.33317,0 -0.12616,-4.76e-4 -0.25233,-3.63e-4 -0.37848,-2.24e-4 -0.12306,-0.007 -0.24245,0.02757 -0.36435,0.04326 -0.0821,0.01667 -0.16723,0.0056 -0.24943,0.01667 -0.0376,0.0056 -0.0739,0.01876 -0.11106,0.02744 -0.11759,0.01904 -0.23402,0.03388 -0.35066,0.05866 -0.1329,0.01484 -0.26266,0.04732 -0.39425,0.07197 -0.121,0.0294 -0.2475,0.0112 -0.36735,0.04214 -0.10896,0.03626 -0.22525,0.02548 -0.33394,0.0588 -0.10989,0.0329 -0.22347,0.04297 -0.33672,0.04887 -0.11257,-0.0056 -0.21976,0.03178 -0.33058,0.04816 -0.12365,0.0098 -0.24423,0.01667 -0.36602,0.04102 -0.12349,0.02646 -0.249,0.03178 -0.37431,0.03527 -0.1224,0.03501 -0.24994,0.03738 -0.37245,0.06917 -0.13871,0.02338 -0.27465,0.0581 -0.41246,0.08723 -0.11822,0.04383 -0.23919,0.07322 -0.35868,0.111726 -0.10163,0.0231 -0.20386,0.05348 -0.29817,0.102765 -0.0894,0.02058 -0.16189,0.07868 -0.24551,0.115505 -0.0179,0.0126 -0.0449,-2.66e-4 -0.0632,0.0112 -0.006,0.0056 -0.008,0.01667 -0.0148,0.0238 -0.0155,0.01484 -0.0364,0.01667 -0.0553,0.02128 0.30308,-0.191628 0.60617,-0.383269 0.90927,-0.574896 -0.0116,0.0098 -0.0224,0.01667 -0.0335,0.02548 0,0 -1.03193,0.441653 -1.03193,0.441653 v 0 c 0.0121,-0.007 0.0243,-0.0126 0.0365,-0.02002 0.32992,-0.2113 0.66003,-0.422191 0.98975,-0.633882 0.009,-0.0056 0.0377,-0.02814 0.0489,-0.0315 0.0284,-0.0098 0.0573,-0.0042 0.0822,-0.02828 0.0804,-0.04297 0.16241,-0.07743 0.2471,-0.109205 0.1007,-0.03332 0.20039,-0.06776 0.3029,-0.09381 0.12004,-0.03794 0.24216,-0.06888 0.36313,-0.102765 0.13747,-0.03178 0.27587,-0.05684 0.41378,-0.08583 0.12713,-0.01946 0.25374,-0.0455 0.38178,-0.05516 0.12305,-0.007 0.24531,-0.02254 0.3666,-0.04718 0.12211,-0.01847 0.2459,-0.01667 0.3675,-0.04088 0.11152,-0.02114 0.22237,-0.03948 0.33588,-0.04032 0.11093,-0.0112 0.22015,-0.03374 0.32907,-0.05993 0.1128,-0.0126 0.22464,-0.0329 0.33642,-0.05474 0.12192,-0.0098 0.24412,-0.01667 0.3642,-0.04424 0.13107,-0.02716 0.26294,-0.04718 0.39428,-0.07266 0.11683,-0.02241 0.23545,-0.03164 0.3516,-0.05923 0.12034,-0.02002 0.2427,-0.01667 0.36308,-0.0385 0.12406,-0.01904 0.24733,-0.04047 0.37315,-0.03122 0.12636,1.41e-4 0.2527,4.62e-4 0.37905,-2.24e-4 0.11105,0 0.2221,0 0.33316,0 0.11107,0 0.22202,0 0.33304,1.4e-5 0.11326,0 0.22646,2.8e-5 0.3397,5.6e-5 0.12524,4.2e-5 0.2505,1.25e-4 0.37575,-3.49e-4 0.11386,-4.77e-4 0.22772,-9.57e-4 0.34151,0.0042 0.11396,0.0056 0.22809,0.01484 0.33937,0.04537 0.10837,0.0287 0.21832,0.04872 0.32541,0.08302 0.0912,0.0301 0.18413,0.05586 0.27665,0.08037 0.10581,0.02324 0.20812,0.0609 0.31365,0.08583 0.10215,0.03402 0.20705,0.05573 0.30671,0.09828 0.10431,0.04718 0.20814,0.09549 0.31245,0.142667 0.10896,0.04214 0.21668,0.08807 0.3142,0.158208 0.10651,0.06454 0.21676,0.121246 0.32471,0.182639 0.11164,0.0623 0.22339,0.124326 0.33395,0.189093 0.11339,0.06748 0.22563,0.137066 0.33522,0.211886 0.11035,0.07294 0.22559,0.136788 0.33083,0.219098 0.10132,0.07728 0.2017,0.156359 0.29654,0.243332 0.0924,0.08624 0.1839,0.17393 0.26829,0.270058 0.0824,0.09954 0.16127,0.20231 0.23934,0.305999 0.0829,0.108926 0.1653,0.218593 0.23823,0.336157 0.0846,0.119565 0.16176,0.245194 0.24043,0.36959 0.0589,0.105285 0.11571,0.212265 0.17739,0.315534 0.0649,0.104585 0.11081,0.221071 0.1716,0.328583 0.0603,0.120124 0.12161,0.238837 0.19057,0.35304 0.0643,0.123066 0.1304,0.244788 0.18495,0.373776 0.0564,0.121386 0.0965,0.250767 0.14952,0.373959 0.0494,0.123066 0.0858,0.251284 0.13493,0.374337 0.0391,0.123906 0.0792,0.247503 0.11937,0.371073 0.0474,0.134687 0.0928,0.269695 0.12764,0.40924 0.0474,0.149891 0.0923,0.300176 0.14583,0.447673 0.0423,0.150801 0.0921,0.29841 0.13862,0.447489 0.047,0.150061 0.0811,0.303549 0.12154,0.455695 0.0326,0.137907 0.0723,0.273937 0.11861,0.40679 0.0325,0.124326 0.058,0.25057 0.0979,0.372473 0.0284,0.127267 0.0625,0.253134 0.0974,0.378286 0.0451,0.140259 0.082,0.283821 0.11686,0.427609 0.0229,0.121386 0.0624,0.237157 0.0862,0.358347 0.0261,0.108226 0.0354,0.220917 0.0659,0.328261 0.009,0.126565 0.0279,0.251214 0.0478,0.376114 0,0.123765 0,0.247574 0,0.371339 2e-5,0.122367 2e-5,0.244481 1.7e-4,0.366735 1.2e-4,0.109346 3.9e-4,0.218649 4.2e-4,0.32798 -2.1e-4,0.107105 -4.2e-4,0.214407 -1.4e-4,0.321624 -1e-4,0.114386 -9.5e-4,0.228785 -8.7e-4,0.343185 -5e-5,0.122645 -3.9e-4,0.245585 0.002,0.368316 0.005,0.122086 0.0117,0.24441 0.0332,0.364647 0.0204,0.126427 0.0247,0.251425 0.02,0.37991 0,0.123905 -10e-6,0.247741 0,0.371634 0,0.122366 1e-5,0.244605 1.8e-4,0.366916 1.8e-4,0.102905 4.5e-4,0.205908 8.8e-4,0.308855 1.3e-4,0.07728 -6e-5,0.154693 3.4e-4,0.232132 2.6e-4,0.06287 -7e-5,0.125866 4.4e-4,0.188742 -4.4e-4,0.06608 1.8e-4,0.132306 -4.4e-4,0.198405 -4.3e-4,0.08498 -0.002,0.169852 -0.0105,0.254122 -0.005,0.041 -0.0125,0.0822 -0.0228,0.12237 -0.005,0.0211 -0.0188,0.0393 -0.0224,0.0609 -0.002,0.0126 5e-5,0.0277 7e-5,0.0416 -2.2e-4,0.0742 8.9e-4,0.14859 8.9e-4,0.22285 -6e-5,0.0696 8.6e-4,0.13916 8.6e-4,0.20861 -3.3e-4,0.0747 -0.002,0.15026 -0.0206,0.22233 -0.0223,0.0924 -0.0817,0.15988 -0.10722,0.25147 -0.0483,0.0833 -0.0681,0.18583 -0.12743,0.26289 -0.0149,0.0493 -0.0363,0.0801 -0.0574,0.12419 -0.0207,0.043 -0.0268,0.0932 -0.0647,0.12502 -0.0439,0.10164 -0.12584,0.17134 -0.16641,0.27574 -0.0651,0.11691 -0.0981,0.25568 -0.11782,0.39047 -0.0347,0.26171 -0.0435,0.52779 -0.0179,0.79131 0,0 -0.97583,0.56389 -0.97583,0.56389 z"
       inkscape:connector-curvature="0" />
    <path
       style="fill:#000000;stroke-width:0.46408895"
       id="path3838"
       d="m 104.01792,80.914861 c 0.26043,0.0042 0.52093,0.0013 0.78137,9.56e-4 0.16306,-9.56e-4 0.32609,-0.0013 0.48912,-0.0013 0.11928,-3.66e-4 0.23857,-4.77e-4 0.35786,-4.77e-4 0.11501,-0.007 0.22538,9.07e-4 0.33785,0.02576 0.10851,0.02408 0.21894,0.03052 0.32919,0.03444 0.0973,0.0013 0.19457,0.0013 0.29186,0.0013 0.0612,-5.6e-5 0.12251,-4.76e-4 0.18374,-4.76e-4 0,0 -0.89394,0.723024 -0.89394,0.723024 v 0 c -0.0611,1.53e-4 -0.12227,-2.8e-5 -0.18341,-2.8e-5 -0.0981,-1.69e-4 -0.19621,-9.57e-4 -0.29419,-0.007 -0.11303,-0.007 -0.22528,-0.0224 -0.33655,-0.04607 -0.1085,-0.01667 -0.2181,-0.007 -0.32735,-0.0098 -0.11883,-7e-5 -0.23765,-1.82e-4 -0.35649,-4.9e-4 -0.16159,-4.9e-4 -0.32317,-4.9e-4 -0.48477,-0.0013 -0.26127,-0.0013 -0.52259,-0.0042 -0.78385,9.57e-4 0,0 0.88956,-0.719272 0.88956,-0.719272 z"
       inkscape:connector-curvature="0" />
    <path
       style="fill:#000000;stroke-width:0.46408895"
       id="path3840"
       d="m 104.31461,81.212319 c 0.0129,0.245431 0.0305,0.490542 0.0438,0.735946 0.005,0.136366 0.0125,0.273112 0.005,0.409548 -0.0144,0.104165 -0.0343,0.20686 -0.0437,0.311936 -0.004,0.120266 -0.0105,0.238935 -0.029,0.357577 -0.0163,0.09842 -0.0261,0.197074 -0.0502,0.293678 -0.0288,0.08358 -0.0288,0.173763 -0.0462,0.260035 -0.0296,0.08345 -0.0393,0.171173 -0.045,0.259937 -0.004,0.08456 -0.005,0.169129 -0.005,0.25372 -3.5e-4,0.08933 2e-4,0.178747 7e-5,0.26803 3.2e-4,0.08443 4.5e-4,0.168764 2.3e-4,0.253048 4.4e-4,0.08932 -4.2e-4,0.178747 -1.2e-4,0.268015 0,0.103465 -4.1e-4,0.206972 -4.6e-4,0.310437 -1.8e-4,0.121386 -2.1e-4,0.242898 -2.2e-4,0.36434 -6e-5,0.136368 -4.5e-4,0.272635 -4.5e-4,0.408975 1.9e-4,0.131606 3.4e-4,0.26303 4.4e-4,0.394553 0.008,0.128386 -0.0117,0.254083 -0.0298,0.38023 -0.0179,0.126147 -0.0224,0.253833 -0.0253,0.381281 -0.002,0.149135 -0.002,0.298257 -0.002,0.447406 -0.008,0.150074 -0.0309,0.29855 -0.043,0.448358 -0.005,0.132307 -0.0128,0.262848 -0.0329,0.393308 -0.0322,0.139306 -0.0564,0.280936 -0.0882,0.420482 -0.0332,0.120686 -0.0382,0.247155 -0.0633,0.369409 -0.0189,0.102764 -0.0462,0.202379 -0.0732,0.302568 -0.0151,0.09199 -0.0443,0.179489 -0.0657,0.269625 -0.0152,0.09338 -0.0196,0.18705 -0.0395,0.279594 -0.0116,0.07728 -0.0456,0.145439 -0.0674,0.219111 -0.0226,0.06621 -0.0223,0.138046 -0.0263,0.20791 -0.11234,0.476289 -0.67226,0.706237 -1.10348,0.747525 -0.0537,-0.0042 -0.10722,-0.007 -0.16102,-0.0098 -0.0657,-0.0013 -0.13128,-0.0013 -0.19692,-0.0013 -0.0915,-4.9e-4 -0.18302,-1.96e-4 -0.27452,-2.53e-4 -0.10143,-1.67e-4 -0.20272,-2.94e-4 -0.30408,-3.63e-4 -0.11048,-5.7e-5 -0.22099,-5.7e-5 -0.33151,-5.7e-5 -0.0902,0.04047 -0.18988,0.03556 -0.28073,0.06958 -0.1064,0.03584 -0.21757,0.04521 -0.32803,0.0511 -0.092,0.03976 -0.18943,0.05223 -0.28713,0.05964 -0.0953,0.007 -0.1908,0.0056 -0.28626,0.0056 -0.087,0.0042 -0.169837,0.0406 -0.257127,0.05307 -0.0842,0.007 -0.16878,0.0098 -0.25325,0.0098 -0.0793,2.8e-4 -0.15863,9.8e-5 -0.23794,-2.52e-4 -0.0775,0 -0.15509,-9.8e-5 -0.23264,-1.27e-4 -0.0838,-2.24e-4 -0.16755,-2.7e-5 -0.25134,-2.51e-4 -0.0894,9.7e-5 -0.17871,5.6e-5 -0.26808,-1.26e-4 -0.1057,-2.24e-4 -0.21147,-2.8e-4 -0.31721,-3.08e-4 -0.11106,-4.2e-5 -0.22218,-4.2e-5 -0.33328,-4.2e-5 -0.0921,0.03527 -0.18822,0.0483 -0.28492,0.05586 -0.0862,-0.0098 -0.163,0.02885 -0.24634,0.04312 0,0 0.88071,-0.740777 0.88071,-0.740777 v 0 c 0.0835,-0.02128 0.16687,-0.02828 0.25224,-0.035 0.0971,-0.01484 0.19262,-0.04676 0.29115,-0.04537 0.11118,0 0.22224,0 0.33335,-4.2e-5 0.10593,-2.8e-5 0.21199,-8.4e-5 0.31799,-3.08e-4 0.0895,-1.83e-4 0.17896,-2.38e-4 0.26843,-1.55e-4 0.0839,-1.95e-4 0.16795,0 0.25192,-1.81e-4 0.0775,1.3e-5 0.155087,0 0.232647,3.36e-4 0.0789,-4.2e-5 0.15766,4.61e-4 0.23647,-9.57e-4 0.0815,-0.0013 0.16339,-0.0056 0.24341,-0.02464 0.0883,-0.02128 0.17586,-0.04438 0.26704,-0.03613 0.0933,-0.0013 0.18679,-0.0042 0.27955,-0.01667 0.097,-0.01484 0.19085,-0.0483 0.2886,-0.05628 0.1078,-0.0126 0.21352,-0.035 0.31803,-0.06678 0.0985,-0.01667 0.19564,-0.04733 0.29558,-0.04648 0.11059,0 0.22112,0 0.33169,-7e-5 0.10163,-8.3e-5 0.20335,-2.24e-4 0.30502,-4.06e-4 0.0917,-8.4e-5 0.18355,4.06e-4 0.27533,8.3e-5 0.0664,9.9e-5 0.1327,4.9e-4 0.19901,0.0042 0.0493,9.57e-4 0.0999,0.0056 0.14737,-0.0126 0.4767,-0.173749 -1.2586,0.775959 -0.77606,0.531368 0.0285,-0.06553 0.004,-0.146923 0.0214,-0.21715 0.009,-0.03738 0.0178,-0.07658 0.03,-0.112986 0.004,-0.0126 0.009,-0.02324 0.0146,-0.035 0.005,-0.0098 0.0139,-0.01667 0.0176,-0.02576 0.005,-0.0126 0.005,-0.028 0.008,-0.042 0.0249,-0.09073 0.0434,-0.177081 0.0425,-0.272985 0.0138,-0.09493 0.0469,-0.181898 0.0644,-0.274498 0.0193,-0.103465 0.0607,-0.198375 0.0733,-0.303535 0.0315,-0.122087 0.04,-0.246412 0.0653,-0.370501 0.0325,-0.136786 0.0533,-0.275981 0.0913,-0.410919 0.0198,-0.127827 0.0414,-0.253147 0.038,-0.383955 0.0105,-0.147287 0.0256,-0.293833 0.0474,-0.439496 1.2e-4,-0.149695 -4.3e-4,-0.299489 4.3e-4,-0.449241 9.5e-4,-0.131885 0.002,-0.264122 0.0175,-0.395168 0.0153,-0.121386 0.0456,-0.240393 0.0371,-0.36392 7e-5,-0.131746 2.4e-4,-0.263395 4.2e-4,-0.395072 1.3e-4,-0.136226 -4.3e-4,-0.272257 -4.3e-4,-0.408399 -2e-5,-0.121386 -4e-5,-0.242716 -2.4e-4,-0.36406 -1.8e-4,-0.103326 -4.4e-4,-0.206524 -4.4e-4,-0.309807 4.3e-4,-0.08919 -8.7e-4,-0.178565 -1.3e-4,-0.26782 -3e-4,-0.08443 -1.2e-4,-0.168764 8e-5,-0.253118 -3e-4,-0.08919 -5e-5,-0.178565 -8.9e-4,-0.267777 2.7e-4,-0.0868 -9.5e-4,-0.173567 0.004,-0.260386 0.004,-0.09618 0.004,-0.195071 0.0309,-0.287489 0.0333,-0.08387 0.0288,-0.170235 0.0468,-0.258957 0.0285,-0.09338 0.0502,-0.183381 0.0567,-0.282646 0.0224,-0.114525 0.0394,-0.226923 0.0348,-0.344865 0.005,-0.106965 0.0144,-0.213721 0.0422,-0.316808 0.0229,-0.128665 0.002,-0.262666 0.006,-0.393097 -0.008,-0.244746 -0.0191,-0.489464 -0.0415,-0.733146 0,0 0.97581,-0.563863 0.97581,-0.563863 z"
       inkscape:connector-curvature="0" />
    <path
       style="fill:#000000;stroke-width:0.46408895"
       id="path3842"
       d="m 98.784653,92.637453 c 0.22609,-0.03794 0.45284,-0.07028 0.68079,-0.09045 0.0741,3.93e-4 0.14978,-0.01667 0.22408,-0.0112 0.0538,0.0042 0.10931,0.0238 0.16214,0.03571 0.0985,0.02017 0.198717,0.02267 0.298497,0.02492 0.11374,-0.0056 0.22272,0.0013 0.33393,0.02687 0.10873,0.02394 0.2194,0.03038 0.32987,0.03402 0.11059,0.0013 0.22122,0.0013 0.33184,0.0013 0.10501,-0.0126 0.20337,0.02758 0.30578,0.04537 0.10174,0.01484 0.20436,0.01484 0.30669,0.01667 0.11047,4.77e-4 0.221,3.08e-4 0.3315,1.55e-4 0.11118,-1.96e-4 0.22239,-2.52e-4 0.33358,-2.8e-4 0.11106,-2.9e-5 0.22222,-2.9e-5 0.33334,-2.9e-5 0.10896,-1.54e-4 0.218,3.64e-4 0.327,-2.66e-4 0.0969,-2.65e-4 0.19364,0 0.29048,1.12e-4 0.0448,0.0042 0.0917,-0.0056 0.13162,-0.02968 0.006,-0.0042 0.0105,-0.01667 0.0188,-0.01847 0.0308,-0.0056 0.0449,0.049 0.0623,0.07813 0.0339,0.06118 0.0434,0.134406 0.0509,0.20434 0.008,0.110045 0.006,0.220804 0.008,0.331241 0.006,0.119006 -0.005,0.232118 -0.0409,0.344446 -0.0376,0.113265 -0.0696,0.229415 -0.11212,0.340511 -0.0396,0.104164 -0.0788,0.207924 -0.10194,0.318332 -0.008,0.09562 -0.0298,0.187035 -0.0512,0.279609 -0.0185,0.08443 -0.0226,0.171172 -0.0254,0.257654 9.4e-4,0.104865 -0.002,0.208121 -0.0217,0.311025 -0.0217,0.101506 -0.029,0.205853 -0.0326,0.309976 9.5e-4,0.110045 -0.0256,0.216716 -0.0405,0.324858 -0.0152,0.133986 -0.0144,0.268982 -0.0308,0.402856 -0.0161,0.133567 -0.034,0.266194 -0.0599,0.397885 -0.0244,0.119006 -0.032,0.240812 -0.0364,0.362463 -9.4e-4,0.14341 -0.0265,0.284691 -0.0413,0.426854 -0.008,0.146923 -0.0363,0.29085 -0.0539,0.436387 -0.0161,0.148772 -0.0171,0.298859 -0.0193,0.448484 -9.5e-4,0.192216 -8.9e-4,0.38443 -9.5e-4,0.576675 8.9e-4,0.179306 8.9e-4,0.358809 9.5e-4,0.538228 8.9e-4,0.168569 -4.4e-4,0.33729 -4.4e-4,0.505943 2.6e-4,0.174308 1.6e-4,0.348698 3.6e-4,0.523068 3.6e-4,0.14471 8.8e-4,0.28939 8.8e-4,0.43408 1.6e-4,0.13748 -4.3e-4,0.27476 -3e-4,0.41214 -4e-4,0.15413 -3.9e-4,0.30826 -4.3e-4,0.4624 -4.1e-4,0.15858 3.8e-4,0.31722 -5e-5,0.47585 -1.1e-4,0.16136 2.5e-4,0.32275 -1.8e-4,0.48412 8.8e-4,0.16505 -1.8e-4,0.33002 -2.3e-4,0.49503 -2.4e-4,0.17635 -2.1e-4,0.35286 2.5e-4,0.5293 4.4e-4,0.18283 -9.3e-4,0.36566 -8.8e-4,0.5485 -4.3e-4,0.20529 1.7e-4,0.41057 9e-5,0.61585 -0.0129,0.22532 -0.0344,0.44968 -0.0453,0.67519 -0.0176,0.21659 -0.0424,0.43211 -0.0549,0.64925 -0.0105,0.23473 -0.0117,0.46983 -0.0124,0.70482 4.4e-4,0.21495 4.4e-4,0.42988 9.5e-4,0.64484 3.7e-4,0.18771 8.9e-4,0.37542 8.9e-4,0.56315 4.4e-4,0.17892 1.8e-4,0.35803 -1.8e-4,0.53703 -2.2e-4,0.17523 3.3e-4,0.35055 8.9e-4,0.52582 8.8e-4,0.14193 1.3e-4,0.2838 1.9e-4,0.42568 1.9e-4,0.13399 3.8e-4,0.26779 4.5e-4,0.4017 9e-5,0.12432 9e-5,0.24856 1e-4,0.37283 9.4e-4,0.0149 0.002,0.0312 0.004,0.0468 0,0 -0.9772,0.5728 -0.9772,0.5728 v 0 c -0.004,-0.0207 -0.006,-0.0412 -0.009,-0.0621 1e-5,-0.12434 1e-5,-0.24864 1e-4,-0.37296 1.1e-4,-0.13412 3.1e-4,-0.26818 4.4e-4,-0.40225 7e-5,-0.14195 -8.8e-4,-0.28395 2.1e-4,-0.42592 4.5e-4,-0.1756 9.4e-4,-0.35126 8.7e-4,-0.52689 -3.3e-4,-0.17893 -8.7e-4,-0.35789 -1.8e-4,-0.53684 -1.5e-4,-0.18789 2.6e-4,-0.37577 3.7e-4,-0.56366 3.6e-4,-0.21549 -2.7e-4,-0.43097 8.8e-4,-0.64645 2.8e-4,-0.23666 1e-4,-0.47343 0.008,-0.70997 0.009,-0.21736 0.0299,-0.43337 0.0566,-0.64899 0.009,-0.22345 0.024,-0.44628 0.0457,-0.66866 -7e-5,-0.20532 8.7e-4,-0.41065 9e-5,-0.61597 1.3e-4,-0.18245 -0.002,-0.36493 -8.9e-4,-0.5474 4.5e-4,-0.17654 4.5e-4,-0.35304 2.8e-4,-0.52957 -5e-5,-0.16488 -8.7e-4,-0.32986 -2.5e-4,-0.49479 -4.2e-4,-0.16134 -6e-5,-0.32262 -1.7e-4,-0.48392 -4.2e-4,-0.15858 3.5e-4,-0.31719 -6e-5,-0.47579 -4e-5,-0.15394 -1e-5,-0.30795 -4.2e-4,-0.46189 1.3e-4,-0.13735 -4.4e-4,-0.27456 -2.9e-4,-0.41182 2.1e-4,-0.14507 8.7e-4,-0.29017 8.7e-4,-0.43527 1.9e-4,-0.17449 9e-5,-0.34899 3.5e-4,-0.52348 2e-5,-0.16839 -9.4e-4,-0.33685 -4.3e-4,-0.505289 4.3e-4,-0.179868 4.3e-4,-0.359665 8.8e-4,-0.53949 -4.5e-4,-0.192173 -8.8e-4,-0.384333 -8.8e-4,-0.576478 -9e-5,-0.153406 8.8e-4,-0.306979 0.0117,-0.460077 0.0146,-0.145621 0.0459,-0.288274 0.0563,-0.434132 0.0105,-0.140456 0.0365,-0.278545 0.043,-0.418775 0.002,-0.127826 0.006,-0.256003 0.0282,-0.38194 0.0238,-0.130626 0.053,-0.25883 0.0633,-0.392214 0.0205,-0.132867 0.0244,-0.264978 0.0305,-0.399608 0.0105,-0.106265 0.035,-0.209227 0.0443,-0.314315 0.004,-0.109906 0.006,-0.220483 0.024,-0.328848 0.0193,-0.09703 0.0407,-0.189431 0.0302,-0.290277 9.4e-4,-0.09282 0.002,-0.186474 0.0166,-0.278054 0.0143,-0.09507 0.0507,-0.180959 0.0535,-0.278095 0.0163,-0.119847 0.0478,-0.231572 0.0911,-0.342428 0.0428,-0.109346 0.0833,-0.219335 0.11525,-0.333638 0.0338,-0.101224 0.0712,-0.194679 0.0579,-0.306334 -2.3e-4,-0.106546 1e-5,-0.21319 -0.005,-0.319636 -0.004,-0.05013 -0.004,-0.107666 -0.0285,-0.151179 0.009,0.01667 0.0217,0.03052 0.0289,0.04788 0.014,0.03388 -0.15669,0.01667 -0.17658,0.0217 -0.097,1.12e-4 -0.19385,3.91e-4 -0.29079,1.4e-4 -0.10873,-5.04e-4 -0.21752,-1.4e-4 -0.3263,-2.94e-4 -0.11105,0 -0.22219,0 -0.33329,4.1e-5 -0.11117,5.7e-5 -0.22236,1.69e-4 -0.33353,3.37e-4 -0.11095,9.7e-5 -0.22203,4.62e-4 -0.33301,-0.0013 -0.10616,-0.0042 -0.21264,-0.0098 -0.31719,-0.03107 -0.0977,-0.02128 -0.19369,-0.0378 -0.29388,-0.0287 -0.11164,-2.37e-4 -0.22333,-3.36e-4 -0.334857,-0.007 -0.11315,-0.007 -0.22571,-0.02226 -0.33722,-0.04564 -0.10814,-0.01667 -0.21724,-0.007 -0.32602,-0.0126 -0.10361,-0.0056 -0.20705,-0.01484 -0.30865,-0.03976 -0.12106,-0.02353 -0.24225,-0.0126 -0.36432,-0.0013 -0.22668,0.02226 -0.45259,0.05418 -0.67655,0.0994 0,0 0.87935,-0.736016 0.87935,-0.736016 z"
       inkscape:connector-curvature="0" />
    <path
       style="fill:#000000;stroke-width:0.46408895"
       id="path3844"
       d="m 98.248503,93.352454 c -0.21754,0.0539 -0.43587,0.105426 -0.657,0.137347 -0.0855,0.0112 -0.17172,0.01484 -0.25776,0.01667 0,0 0.89083,-0.72588 0.89083,-0.72588 v 0 c 0.0829,-0.0042 0.16567,-0.0112 0.24781,-0.02421 0.21875,-0.03682 0.43597,-0.08513 0.65002,-0.147665 0,0 -0.8739,0.743674 -0.8739,0.743674 z"
       inkscape:connector-curvature="0" />
    <path
       style="fill:#4d4d4d;stroke-width:0.46408895"
       id="path3846"
       d="m 99.255043,91.045842 c -0.0146,0.268714 -0.0328,0.53715 -0.0447,0.806033 -0.007,0.149514 -0.008,0.299349 -0.009,0.449086 0.006,0.105706 -0.004,0.208372 -0.0241,0.311376 -0.0172,0.04243 -0.0514,0.0672 -0.0725,0.105145 0,0 -0.99809,0.535456 -0.99809,0.535456 v 0 c 0.002,-0.06174 0.0136,-0.105285 0.0551,-0.148212 0.0739,-0.02422 0.0525,-0.183198 0.056,-0.246859 8.7e-4,-0.152482 0.003,-0.304809 0.0116,-0.456969 0.0144,-0.266545 0.0362,-0.532614 0.0464,-0.799452 0,0 0.9797,-0.555549 0.9797,-0.555549 z"
       inkscape:connector-curvature="0" />
    <path
       style="fill:#333333;stroke-width:0.05860008"
       d="m 125.16488,157.70152 c -0.4887,-0.0628 -0.90111,0.25371 -1.22023,0.63014 -0.7822,0.79046 -1.46572,1.70722 -2.20792,2.52889 -0.66212,0.33006 -1.37395,0.56189 -1.99528,0.98119 -0.35094,0.44785 0.11093,0.95753 0.24848,1.39461 1.05077,2.30078 2.02807,4.65137 2.71869,7.12013 0.2897,0.94073 0.54231,1.89982 0.81388,2.84356 0.22107,0.41569 0.69801,0.21732 0.94135,-0.0593 0.29472,-0.2509 0.63593,-0.43534 0.87472,-0.75308 0.41387,-0.38842 0.94094,-0.54696 1.39976,-0.84265 0.89597,-0.81427 1.72676,-1.73677 2.36719,-2.81461 0.60889,-0.85859 1.41301,-1.62701 1.6257,-2.74664 0.33057,-1.05525 0.19562,-2.1915 0.19047,-3.28573 -0.0368,-1.28638 -0.97727,-2.19123 -1.67923,-3.09218 -0.75651,-0.79303 -1.78904,-1.09616 -2.70636,-1.58463 -0.43187,-0.21724 -0.89668,-0.32933 -1.37122,-0.31961 z"
       id="path3848"
       inkscape:connector-curvature="0" />
    <path
       style="fill:#333333;stroke-width:0.05860008"
       d="m 101.5386,111.78377 c -1.26708,-0.01 -2.499427,0.41322 -3.674107,0.89272 -1.1517,1.01444 -2.07745,2.32674 -2.86156,3.70181 -1.22952,2.48685 -2.2723,5.10763 -2.934628,7.85384 -0.380225,1.89226 -0.233204,3.84983 -0.272643,5.7729 0.03045,1.9143 -0.07101,3.83676 0.08559,5.74562 0.31694,1.90322 1.151421,3.65482 2.124981,5.23949 0.9727,1.5334 2.59609,2.25422 4.04807,3.07327 0.49049,0.2123 0.98411,0.59595 1.52243,0.54318 0.814627,-0.40612 1.635587,-0.82111 2.529187,-0.95721 0.40889,-0.14877 0.94646,-0.0724 1.22767,-0.49026 0.13008,-0.70318 0.0419,-1.44266 0.0787,-2.15933 0.0353,-3.31074 -0.0288,-6.62644 0.0665,-9.93222 0.14285,-1.3155 1.02241,-2.35678 1.18973,-3.66996 0.12628,-0.98756 0.10477,-2.01456 -0.0944,-2.98763 -0.37126,-1.04114 -0.81813,-2.11463 -0.72066,-3.2664 -0.004,-2.6413 0.60667,-5.20217 1.09756,-7.76469 0.32414,-0.18352 0.84725,-0.37829 0.72603,-0.89797 -0.19096,-0.51372 -0.78898,-0.37628 -1.18917,-0.4747 -0.98031,-0.10892 -1.96307,-0.22703 -2.94949,-0.22246 z"
       id="path3850"
       inkscape:connector-curvature="0" />
    <path
       style="fill:#333333;stroke-width:0.05860008"
       d="m 98.813483,92.784587 c -0.45268,0.03374 -0.97775,0.02842 -1.34507,0.342611 -0.4917,1.112592 -1.00376,2.226852 -1.33295,3.41922 -0.40709,1.129449 -0.72642,2.311822 -0.99737,3.498132 -0.27663,1.22211 -0.69806,2.40051 -0.94041,3.63106 -0.13328,1.01776 -0.28139,2.0817 -0.0648,3.09606 0.35733,0.94471 0.83772,1.82641 1.1958,2.77043 0.48627,0.83968 1.34377,1.32747 2.17907,1.6137 0.20261,0.0761 0.51094,0.0744 0.65963,0.13945 -0.25427,0.44955 0.26037,0.96723 0.64738,0.69354 0.98634,-0.54042 2.053437,-1.10618 3.055027,-1.47426 0.34337,-0.044 0.43975,-0.51312 0.42362,-0.8597 0.14802,-3.8923 0.0734,-7.78873 0.21506,-11.678564 0.11398,-1.050556 0.19369,-2.110225 0.3741,-3.149469 0.13832,-0.549709 0.35179,-1.202015 0.0944,-1.732921 -0.34117,-0.348141 -0.86323,-0.113685 -1.28406,-0.182528 -0.96668,0.01471 -1.916087,-0.102064 -2.879387,-0.126705 z"
       id="path3852"
       inkscape:connector-curvature="0" />
    <path
       style="fill:#333333;stroke-width:0.05860008"
       d="m 103.51967,81.113433 c -0.43019,-0.05628 -0.73137,0.343085 -0.84019,0.763414 -0.49717,1.295541 -1.0639,2.547818 -1.71568,3.751485 -0.43464,0.616324 -0.84453,1.257597 -1.094697,1.997323 -0.41238,0.965684 -0.74968,1.973075 -1.17528,2.928594 -0.13854,0.43881 0.29588,0.744263 0.64835,0.673489 1.012797,0.0112 2.023557,-0.0826 3.024977,-0.239313 0.36476,0.06021 0.77206,-0.15566 0.81587,-0.599608 0.51666,-1.918094 0.35014,-3.9689 0.44416,-5.905713 0.0997,-0.810682 0.21083,-1.622498 0.19149,-2.44382 0.38764,-0.29407 0.16505,-0.968218 -0.299,-0.925851 z"
       id="path3854"
       inkscape:connector-curvature="0" />
    <path
       style="fill:#333333;stroke-width:0.05860008"
       d="m 105.03627,77.746673 c -0.48169,0.16469 -0.5799,0.8231 -0.82822,1.241707 -0.30199,0.70849 -0.70657,1.313615 -1.08124,1.976434 -0.16153,0.493259 0.38254,0.856759 0.75284,0.628211 0.20979,-0.148896 0.43045,-0.227483 0.68393,-0.189232 0.38807,-0.0084 1.0326,0.127406 1.08892,-0.474512 -0.024,-0.936968 0.009,-1.885682 -0.10091,-2.816882 -0.0603,-0.245642 -0.29113,-0.404775 -0.51535,-0.365726 z"
       id="path3856"
       inkscape:connector-curvature="0" />
    <path
       style="fill:#333333;stroke-width:0.05860008"
       d="m 114.51102,85.742074 c -1.45895,-0.0112 -2.8797,0.374602 -4.32715,0.461784 -0.3991,0.07378 -1.04254,0.0574 -1.059,0.65708 -0.0162,0.330836 0.0603,0.716429 -0.27921,0.853818 -0.2829,0.185145 -0.63363,0.574883 -0.37279,0.942302 0.0853,0.268155 0.4612,0.156878 0.52846,0.283655 -0.20846,1.168889 -0.40591,2.343308 -0.42951,3.538799 -0.0584,1.199397 -0.40477,2.362014 -0.35138,3.570497 0.006,0.884452 -0.0477,1.781699 0.021,2.657694 0.0891,0.470886 0.63662,0.420119 0.88138,0.123907 1.36267,-1.010878 2.81106,-1.878262 4.27257,-2.716218 0.37936,0.425103 0.64376,0.972978 0.88708,1.504403 0.19109,0.748308 0.66285,1.344947 0.94135,2.04347 0.0119,0.222541 0.213,0.501125 -0.0236,0.645525 -0.29361,0.42522 0.21385,0.9977 0.61593,0.73577 0.57941,-0.26881 1.09789,-0.69325 1.64268,-1.02463 0.68745,-0.725598 1.46214,-1.362026 2.23668,-1.97352 0.47222,-0.322199 0.99568,-0.659264 1.56836,-0.62194 0.009,2.068322 0.006,4.12175 -0.38754,6.1349 -0.0716,0.47151 0.44615,0.74445 0.76728,0.46486 0.39811,-0.23957 1.05201,-0.35866 1.01503,-1.00371 0.14201,-0.67428 0.75575,-1.18448 0.67793,-1.92501 -0.034,-1.844398 0.0398,-3.695106 -0.0915,-5.535286 -0.33066,-1.681568 -0.84608,-3.315322 -1.39259,-4.923776 -0.4505,-1.095596 -1.04133,-2.145031 -1.81282,-2.996525 -1.12818,-0.976786 -2.4953,-1.639271 -3.91151,-1.866363 -0.53747,-0.04957 -1.07842,-0.02772 -1.61714,-0.0315 z m 3.05689,14.065202 c -0.0328,0.09423 0.0499,-0.20413 0,0 z m -1.33338,-0.0013 c 0.31882,0.162506 0.33627,0.866934 -0.0933,0.823304 -0.56395,-4.9e-4 -0.50148,-1.111774 0.0933,-0.823304 z"
       id="path3858"
       inkscape:connector-curvature="0" />
    <path
       style="fill:#333333;stroke-width:0.11720017"
       d="m 157.14578,229.38151 c -3.15427,0.0835 -6.32538,-0.0907 -9.4679,0.26128 -3.01183,0.28276 -6.0454,0.12559 -9.06561,0.18763 -10.19162,-0.014 -20.38428,0.0765 -30.57524,-0.0606 -2.03941,-0.0606 -4.10071,-0.53192 -6.18415,-0.4105 -3.483737,0.0556 -6.981787,-0.0492 -10.447377,0.40714 -2.853781,0.19844 -5.758864,0.0126 -8.599312,0.53867 -0.618314,0.16319 -1.721355,-0.34574 -1.827935,0.66831 -0.70396,3.45215 0.06377,7.06059 -0.812497,10.4803 -0.390247,2.42687 -1.391529,4.68029 -2.660499,6.68135 -2.686576,3.61724 -5.894912,6.75015 -9.453407,9.26891 -2.22128,1.66304 -4.601567,2.97748 -7.198431,3.66349 -0.42742,0.0729 -1.070639,0.46911 -0.684368,1.03114 0.908769,0.50405 2.004136,0.41098 2.996626,0.5768 2.296884,0.16345 4.546406,0.6668 6.860935,0.50178 3.407535,0.006 6.797291,-0.44046 10.205457,-0.39347 10.4673,-0.0925 20.936878,-0.1731 31.403578,0.01 4.95787,0.44254 9.95126,0.31757 14.88798,0.76058 3.75654,0.18776 7.53487,0.11158 11.27842,0.34397 3.0324,0.40786 6.10052,0.19926 9.14807,0.27955 5.19823,-0.0329 10.46906,0.13104 15.61466,-0.44583 2.83873,-0.16315 5.71791,-0.18158 8.52227,-0.82836 3.37745,-0.57755 6.76487,-1.11511 10.14859,-1.60276 1.87424,-0.16782 3.7458,-0.44623 5.52291,-1.16323 2.33828,-0.77047 4.6122,-1.89964 6.45399,-3.71425 1.7527,-1.72676 3.57595,-3.42549 4.99204,-5.51463 1.44706,-2.30889 2.79264,-4.80434 3.33084,-7.5844 0.16258,-2.18532 0.0661,-4.39262 -0.0379,-6.57945 -0.34123,-2.70834 -2.16407,-5.22055 -4.64304,-5.73307 -1.28856,-0.25961 -2.61418,-0.17594 -3.89147,-0.54761 -1.72768,-0.30787 -3.42939,-0.85847 -5.16568,-1.05414 -6.88796,0 -13.77592,0 -20.66388,0 -0.5274,0.16934 -0.95967,0.94273 -1.31775,0.0734 -0.86142,-0.35034 -1.8543,-0.0492 -2.76803,-0.13944 -1.96727,0.0126 -3.93454,0.0254 -5.90181,0.0381 z"
       id="path3860"
       inkscape:connector-curvature="0" />
    <path
       style="fill:#333333;stroke-width:0.66298431"
       d="m 27.47706,44.158155 c -4.422054,-0.431388 -8.06927,2.784359 -9.973038,7.003676 -4.132254,7.986874 -5.04416,17.379123 -5.856164,26.379535 2.777093,0.887855 6.288886,-0.54807 9.414091,-0.200055 8.785523,-0.25708 17.574984,-0.141212 26.362409,-0.172866 1.355261,-6.698657 -1.269816,-14.073057 -3.325552,-20.54741 -2.778709,-7.01286 -9.441962,-13.067093 -16.621746,-12.46288 z"
       id="path3862"
       inkscape:connector-curvature="0" />
  </g>
</svg>
